<svg xmlns="http://www.w3.org/2000/svg" version="1.1" xmlns:xlink="http://www.w3.org/1999/xlink" xmlns:svgjs="http://svgjs.dev/svgjs" width="2000" height="2250" viewBox="0 0 2000 2250"><g transform="matrix(1,0,0,1,0.00014687500004129106,0)"><svg viewBox="0 0 320 360" data-background-color="#f9f9f9" preserveAspectRatio="xMidYMid meet" height="2250" width="2000" xmlns="http://www.w3.org/2000/svg" xmlns:xlink="http://www.w3.org/1999/xlink"><g id="tight-bounds" transform="matrix(1,0,0,1,0.000023499999997511622,0)"><svg viewBox="0 0 320 360" height="360" width="320"><g><svg></svg></g><g><svg viewBox="0 0 320 360" height="360" width="320"><g><path transform="translate(-74.99272,-51.79039) scale(4.65793,4.65793)" d="M20.6 59.9l0.8 1-0.4-1.3c-0.1-0.6-0.8 0.1-0.4 0.3M21.5 59.3c0.3 0.5 0.6 1 0.6 1.5 0 0.7 0.6 1 1.1 1.2-0.7-0.8-1.1-3-1.7-2.7M59.9 16.9c1.7 0 3.3-0.2 5.1 0.2 4.4 1.1 8.1 3.3 10.6 6.4l7 11.2c0.3 2.8 0.9 5.9 0.8 9.3 0.7 0 0.6-1 1.4-1.2-0.8 2-1.2 4.5-1.4 7.4-0.5-1.6 0-4 0.1-5.3-0.7 1.1-1.1 0.3-1.1-0.2 0.1-0.8-0.3-0.7-0.6-1-1.1-1-1.8-2.1-2.6-3.8 0.5-1.3 0.6-3.2-1-4.2-0.5-0.3-1.1-0.8-1.4-1.6-0.4-1.1-1.1-2.4-0.9-4.1 0.1-0.5-1.5 1.1-2.4 0.4-3.9-2.7-7.8-5.8-12.5-8.4-2.5 0-4.3-0.9-5.2-2-0.8-1-0.2-2.3 1-2.4 0.7 0 1.5-0.2 2.1 0.2 0.1-0.4 0.5-0.9 1-0.9M50 14.6l0.2 0.1c1 0.2 1.5 1.6 2.6 1.1 0 0.7 0.1 1.4-0.1 1.9-0.3 0.8-1.2 0.8-1.9 0.8-6.7-0.4-10.6 2.4-14.7 4.8-1.1 0.7-2.3 1.2-3.2 2.1-4.3 4-9 7.7-10.1 15.1l-0.9 8.2c-0.1 0.9-1.1 1.8-0.9 2.9l0.7 4.9c-0.7-0.7-1.1 0.2-0.9 0.6 0.1 0.3 0.5 1.3 1.1 0.4 0.8 1.5 1.6 4.4 2.7 5.7 3.4 4 7.8 7.6 11.4 11.2 0.9-0.2 1.6-0.2 1.8-0.8 0.3 0.6-0.3 1.2-0.8 1.3 1.6 1 3.4 1.9 5.8 2.1 3.1 0.2 6 0.7 8.7 1.4 1.4-0.4 2.8-0.6 4.3-0.7 0.5 0 0.8-0.8 1.4-1l0.1-1c0.6 0.9 0.5-0.3 0.1-0.9 0.7 0.6 0.9 1.1 1.2 1.5 0-0.3 0.8-1.4 0.8-0.1l0.2-1.3c0.3-0.2 0.4 1.1 0.7 0.2 0.3-0.9 0.9-0.2 1.5-0.5-0.2 0.4-0.1 1.2 0.6 0.7l0.8-0.7c0.5 1.2 1.3 0.7 1.7 0.5 4.4-2.8 8.8-6.1 13-9.4l-0.1 1.3 0.5-1.6c0.5 0.5 0.9 0.1 1.1-0.2 0.6-1 1.4-2 2.7-2.9-1.6 4.3-3.5 7.7-5.9 10.5l-1 1.2c0 0.7-0.2 1.6-1 1.7-0.4 0.1-1.2-0.2-1.8 0.4-0.3 0.4 0.7 1.2-0.1 0.6-0.7-0.5-1.4 0-2.2 0.2-0.6 0.2 0.4 0.8 0.6 1.2 0.2 0.4 0.4 0.8 0.3 1.3l-1.1-1.2c-1.3 0.7-2.1 2-3.2 3-0.5 0.4-0.3 1.1-0.3 1.7-0.7 0-1.5-0.2-1.9 0.2-0.3 0.4-0.2 1-0.2 1.6-1-0.1-1.1-1.6-2-1.3-0.9 0.2-1.9 0.3-2.7 0.8 0.6 1.2-1 0.5-0.8 0.7-1.5-0.9-2.8-1.6-4.4-1-3.4-1.1-7.6-0.6-10.7-0.2 0-0.5 0.1-1-0.1-1.1-0.2 0.5-0.8 0.3-0.7 0.3-1.9-1.3-3.8-2.1-5.8-3.2-1.8 0.2-3.5-0.7-4-1.2-1.4-1.3-3-0.6-4.3-0.9-2.8-0.7-3.8-3.6-4.1-5.6-0.2-1-1-1.4-1.3-1.3-1.3-4.2-3.3-8-4.9-11.9-0.4-1-0.3-2-0.3-3.1 0.5 0.2 1 0.1 0.9-0.6-0.5-3.3-1.7-5.8-3-8.2 0.7-3.4 0.8-7.4 2.4-10.4 1.4-2.7 4-4.1 5.8-6.4 0.6-0.8 0.6-1.9 1.2-2.6 2-2 4-4.1 6.2-5.9 1-0.8 2.2 0 3.7-0.3 0.5-1.8 2.5-3.4 4.4-2.9 0.8 0.2 2.4-1.9 2.9-2.1 0.8-0.3 0.4 0.8 0.4 1.5 1.9-1.5 4.5-2.3 6.9-3.2" fill="#030303" fill-rule="nonzero" stroke="none" stroke-width="1" stroke-linecap="butt" stroke-linejoin="miter" stroke-miterlimit="10" stroke-dasharray="" stroke-dashoffset="0" font-family="none" font-weight="none" font-size="none" text-anchor="none" style="mix-blend-mode: normal" data-fill-palette-color="tertiary"></path></g><g transform="matrix(1,0,0,1,64,136.62588734320224)"><svg viewBox="0 0 192 86.74822531359553" height="86.74822531359553" width="192"><g><svg viewBox="0 0 192 86.74822531359553" height="86.74822531359553" width="192"><g><svg viewBox="0 0 192 86.74822531359553" height="86.74822531359553" width="192"><g transform="matrix(1,0,0,1,0,51.66189433819468)"><svg viewBox="0 0 192 35.086330975400855" height="35.086330975400855" width="192"><g id="textblocktransform"><svg viewBox="0 0 192 35.086330975400855" height="35.086330975400855" width="192" id="textblock"><g><svg viewBox="0 0 192 21.741351184114304" height="21.741351184114304" width="192"><g transform="matrix(1,0,0,1,0,0)"><svg width="192" viewBox="2.25 -37.99 433.97 49.150000000000006" height="21.741351184114304" data-palette-color="#030303"><path d="M20.95-1.86L20.95-2.22Q19.7-0.9 18.05-0.17 16.41 0.56 14.31 0.56L14.31 0.56Q11.74 0.56 9.53-0.33 7.32-1.22 5.7-2.94 4.08-4.66 3.16-7.17 2.25-9.67 2.25-12.89L2.25-12.89Q2.25-15.82 3.13-18.23 4-20.63 5.62-22.33 7.23-24.02 9.5-24.96 11.77-25.9 14.55-25.9L14.55-25.9Q16.46-25.9 17.98-25.48 19.51-25.05 20.95-24L20.95-24 20.95-25.29 25.49-25.29 25.49-1Q25.49 5 22.64 8.08 19.8 11.16 13.79 11.16L13.79 11.16Q12.48 11.16 11.04 10.96 9.59 10.77 8.19 10.34 6.79 9.91 5.46 9.25 4.13 8.59 3 7.64L3 7.64 5.44 3.96Q6.18 4.59 7.12 5.13 8.06 5.66 9.13 6.04 10.21 6.42 11.35 6.64 12.5 6.86 13.65 6.86L13.65 6.86Q15.53 6.86 16.91 6.47 18.29 6.08 19.18 5.09 20.07 4.1 20.51 2.42 20.95 0.73 20.95-1.86L20.95-1.86ZM14.89-3.39L14.89-3.39Q16.02-3.39 16.94-3.61 17.87-3.83 18.63-4.19 19.38-4.54 19.96-5 20.53-5.47 20.95-5.98L20.95-5.98 20.95-19.82Q19.7-20.92 18.08-21.41 16.46-21.9 14.75-21.9L14.75-21.9Q13.13-21.9 11.72-21.3 10.3-20.7 9.24-19.56 8.18-18.41 7.57-16.75 6.96-15.09 6.96-12.94L6.96-12.94Q6.96-10.6 7.54-8.81 8.13-7.03 9.18-5.82 10.23-4.61 11.69-4 13.16-3.39 14.89-3.39ZM46.6 0L46.6-2.34Q45.16-1 43.42-0.15 41.67 0.71 39.45 0.71L39.45 0.71Q37.6 0.71 36.04 0.12 34.49-0.46 33.37-1.48 32.25-2.49 31.63-3.83 31-5.18 31-6.69L31-6.69Q31-8.3 31.48-9.55 31.96-10.79 32.75-11.71 33.54-12.62 34.6-13.24 35.67-13.87 36.83-14.25 37.99-14.62 39.19-14.78 40.4-14.94 41.5-14.94L41.5-14.94Q43.26-14.94 44.46-14.83 45.65-14.72 46.63-14.53L46.63-14.53 46.65-16.6Q46.65-17.94 46.26-18.93 45.87-19.92 45.16-20.57 44.46-21.22 43.47-21.53 42.48-21.85 41.26-21.85L41.26-21.85Q40.11-21.85 39.06-21.69 38.01-21.53 37.09-21.28 36.18-21.02 35.41-20.69 34.64-20.36 34.1-20L34.1-20 32.61-23.14Q33.52-23.73 34.59-24.23 35.67-24.73 36.85-25.09 38.03-25.44 39.27-25.65 40.5-25.85 41.7-25.85L41.7-25.85Q43.89-25.85 45.65-25.33 47.41-24.8 48.63-23.71 49.85-22.61 50.51-20.91 51.17-19.21 51.17-16.85L51.17-16.85 51.14-4.2 53.95-4.2 53.95 0 46.6 0ZM40.45-3.1L40.45-3.1Q41.35-3.1 42.26-3.32 43.16-3.54 43.97-3.92 44.77-4.3 45.46-4.8 46.14-5.3 46.6-5.83L46.6-5.83 46.63-11.55 41.35-11.55Q40.04-11.55 38.95-11.25 37.86-10.96 37.07-10.4 36.28-9.84 35.84-9.01 35.4-8.18 35.4-7.1L35.4-7.1Q35.4-6.1 35.76-5.36 36.13-4.61 36.8-4.11 37.47-3.61 38.4-3.36 39.33-3.1 40.45-3.1ZM59.08-21.09L59.08-25.29 67.13-25.29 67.13-22.34 67.18-22.34Q68.01-23.05 68.93-23.67 69.84-24.29 70.84-24.76 71.85-25.22 72.93-25.49 74.02-25.76 75.19-25.76L75.19-25.76Q77.92-25.76 79.9-24.74 81.88-23.73 82.95-21.58L82.95-21.58Q83.88-22.41 84.91-23.18 85.93-23.95 87.04-24.51 88.15-25.07 89.37-25.42 90.6-25.76 91.91-25.76L91.91-25.76Q93.96-25.76 95.6-25.2 97.24-24.63 98.38-23.49 99.53-22.34 100.13-20.54 100.73-18.75 100.73-16.31L100.73-16.31 100.73-4.2 104.24-4.2 104.24 0 92.43 0 92.43-4.2 95.99-4.2 95.99-15.75Q95.99-18.65 94.53-20.15 93.06-21.66 90.3-21.66L90.3-21.66Q88.67-21.66 86.96-20.87 85.25-20.09 84.03-18.9L84.03-18.9 84.03-4.2 87.52-4.2 87.52 0 75.73 0 75.73-4.2 79.29-4.2 79.29-15.75Q79.29-18.65 77.81-20.15 76.34-21.66 73.58-21.66L73.58-21.66Q71.99-21.66 70.38-20.9 68.77-20.14 67.33-19.02L67.33-19.02 67.33-4.2 70.89-4.2 70.89 0 59.08 0 59.08-4.2 62.59-4.2 62.59-21.09 59.08-21.09ZM109.12-21.09L109.12-25.29 117.18-25.29 117.18-22.34 117.23-22.34Q118.06-23.05 118.97-23.67 119.89-24.29 120.89-24.76 121.89-25.22 122.98-25.49 124.06-25.76 125.24-25.76L125.24-25.76Q127.97-25.76 129.95-24.74 131.93-23.73 133-21.58L133-21.58Q133.93-22.41 134.95-23.18 135.98-23.95 137.09-24.51 138.2-25.07 139.42-25.42 140.64-25.76 141.96-25.76L141.96-25.76Q144.01-25.76 145.65-25.2 147.28-24.63 148.43-23.49 149.58-22.34 150.18-20.54 150.77-18.75 150.77-16.31L150.77-16.31 150.77-4.2 154.29-4.2 154.29 0 142.47 0 142.47-4.2 146.04-4.2 146.04-15.75Q146.04-18.65 144.57-20.15 143.11-21.66 140.35-21.66L140.35-21.66Q138.71-21.66 137-20.87 135.3-20.09 134.07-18.9L134.07-18.9 134.07-4.2 137.57-4.2 137.57 0 125.77 0 125.77-4.2 129.34-4.2 129.34-15.75Q129.34-18.65 127.86-20.15 126.38-21.66 123.63-21.66L123.63-21.66Q122.04-21.66 120.43-20.9 118.82-20.14 117.38-19.02L117.38-19.02 117.38-4.2 120.94-4.2 120.94 0 109.12 0 109.12-4.2 112.64-4.2 112.64-21.09 109.12-21.09ZM174.04 0L174.04-2.34Q172.6-1 170.85-0.15 169.11 0.71 166.88 0.71L166.88 0.71Q165.03 0.71 163.48 0.12 161.93-0.46 160.81-1.48 159.68-2.49 159.06-3.83 158.44-5.18 158.44-6.69L158.44-6.69Q158.44-8.3 158.91-9.55 159.39-10.79 160.18-11.71 160.98-12.62 162.04-13.24 163.1-13.87 164.26-14.25 165.42-14.62 166.63-14.78 167.84-14.94 168.94-14.94L168.94-14.94Q170.69-14.94 171.89-14.83 173.09-14.72 174.06-14.53L174.06-14.53 174.09-16.6Q174.09-17.94 173.7-18.93 173.31-19.92 172.6-20.57 171.89-21.22 170.9-21.53 169.91-21.85 168.69-21.85L168.69-21.85Q167.54-21.85 166.49-21.69 165.44-21.53 164.53-21.28 163.61-21.02 162.84-20.69 162.07-20.36 161.54-20L161.54-20 160.05-23.14Q160.95-23.73 162.03-24.23 163.1-24.73 164.28-25.09 165.47-25.44 166.7-25.65 167.93-25.85 169.13-25.85L169.13-25.85Q171.33-25.85 173.09-25.33 174.84-24.8 176.06-23.71 177.28-22.61 177.94-20.91 178.6-19.21 178.6-16.85L178.6-16.85 178.58-4.2 181.39-4.2 181.39 0 174.04 0ZM167.89-3.1L167.89-3.1Q168.79-3.1 169.69-3.32 170.6-3.54 171.4-3.92 172.21-4.3 172.89-4.8 173.57-5.3 174.04-5.83L174.04-5.83 174.06-11.55 168.79-11.55Q167.47-11.55 166.38-11.25 165.3-10.96 164.5-10.4 163.71-9.84 163.27-9.01 162.83-8.18 162.83-7.1L162.83-7.1Q162.83-6.1 163.2-5.36 163.56-4.61 164.24-4.11 164.91-3.61 165.83-3.36 166.76-3.1 167.89-3.1ZM184.07 0Q184.07 0 184.07 0ZM219.96-12.06L201.74-12.06Q201.74-10.99 201.9-10.1 202.06-9.2 202.35-8.4L202.35-8.4Q203.26-5.96 205.25-4.72 207.24-3.49 209.75-3.49L209.75-3.49Q211.73-3.49 213.6-4.04 215.46-4.59 217.51-5.76L217.51-5.76 219.35-2.66Q216.86-0.95 214.34-0.12 211.83 0.71 209.12 0.71L209.12 0.71Q206.55 0.71 204.37-0.15 202.18-1 200.61-2.69 199.03-4.37 198.14-6.88 197.25-9.4 197.25-12.74L197.25-12.74Q197.25-15.45 198.01-17.86 198.76-20.26 200.27-22.06 201.77-23.85 203.99-24.9 206.21-25.95 209.16-25.95L209.16-25.95Q212.02-25.95 213.94-25.09 215.85-24.22 217.06-22.79 218.27-21.36 218.89-19.53 219.52-17.7 219.76-15.8L219.76-15.8Q219.88-14.87 219.92-13.92 219.96-12.96 219.96-12.06L219.96-12.06ZM208.85-22.14L208.85-22.14Q207.26-22.14 206.08-21.69 204.89-21.24 204.06-20.4 203.23-19.56 202.73-18.33 202.23-17.11 201.99-15.6L201.99-15.6 215.1-15.6Q215-17.02 214.65-18.21 214.29-19.41 213.56-20.29 212.83-21.17 211.68-21.66 210.53-22.14 208.85-22.14ZM241.05-33.79L241.05-37.99 249.03-37.99 249.03-4.2 252.74-4.2 252.74 0 244.49 0 244.49-2.08Q243.27-0.83 241.66-0.13 240.05 0.56 238 0.56L238 0.56Q235.43 0.56 233.22-0.33 231.01-1.22 229.39-2.94 227.77-4.66 226.85-7.17 225.93-9.67 225.93-12.89L225.93-12.89Q225.93-15.82 226.81-18.23 227.69-20.63 229.3-22.33 230.92-24.02 233.19-24.96 235.46-25.9 238.24-25.9L238.24-25.9Q240.07-25.9 241.58-25.5 243.1-25.1 244.49-24.1L244.49-24.1 244.49-33.79 241.05-33.79ZM238.58-3.39L238.58-3.39Q240.61-3.39 241.97-3.99 243.34-4.59 244.49-5.79L244.49-5.79 244.49-19.95Q243.27-20.97 241.68-21.44 240.09-21.9 238.43-21.9L238.43-21.9Q236.82-21.9 235.41-21.3 233.99-20.7 232.93-19.56 231.87-18.41 231.26-16.75 230.65-15.09 230.65-12.94L230.65-12.94Q230.65-10.6 231.23-8.81 231.82-7.03 232.87-5.82 233.92-4.61 235.38-4 236.85-3.39 238.58-3.39ZM272.32-21.09L272.32-25.29 280.47-25.29 280.47-4.2 283.28-4.2 283.28 0 275.91 0 275.91-2.34Q274.2-1.03 272.18-0.29 270.17 0.44 267.88 0.44L267.88 0.44Q265.97 0.44 264.42-0.11 262.87-0.66 261.78-1.82 260.7-2.98 260.11-4.76 259.53-6.54 259.53-9.01L259.53-9.01 259.53-21.09 256.11-21.09 256.11-25.29 264.26-25.29 264.26-9.55Q264.26-6.64 265.61-5.15 266.95-3.66 269.46-3.66L269.46-3.66Q270.95-3.66 272.6-4.2 274.25-4.74 275.71-5.69L275.71-5.69 275.71-21.09 272.32-21.09ZM312.89-18.55L308.3-18.55Q307.28-20.39 305.7-21.24 304.13-22.09 302.05-22.09L302.05-22.09Q300.47-22.09 299.07-21.44 297.68-20.78 296.64-19.56 295.61-18.33 295.01-16.59 294.41-14.84 294.41-12.7L294.41-12.7Q294.41-10.57 295.01-8.86 295.61-7.15 296.66-5.94 297.71-4.74 299.09-4.09 300.47-3.44 302.05-3.44L302.05-3.44Q304.4-3.44 306.13-4.58 307.86-5.71 308.89-7.91L308.89-7.91 312.65-6.05Q311.92-4.49 310.84-3.25 309.77-2 308.41-1.12 307.06-0.24 305.43 0.23 303.81 0.71 302 0.71L302 0.71Q299.37 0.71 297.13-0.28 294.9-1.27 293.28-3.05 291.65-4.83 290.75-7.3 289.85-9.77 289.85-12.7L289.85-12.7Q289.85-15.63 290.8-18.09 291.75-20.56 293.41-22.33 295.07-24.1 297.29-25.1 299.51-26.1 302.05-26.1L302.05-26.1Q304.45-26.1 306.58-25.27 308.72-24.44 310.33-22.75L310.33-22.75 312.89-22.75 312.89-18.55ZM332.2 0L332.2-2.34Q330.76-1 329.02-0.15 327.27 0.71 325.05 0.71L325.05 0.71Q323.19 0.71 321.64 0.12 320.09-0.46 318.97-1.48 317.85-2.49 317.22-3.83 316.6-5.18 316.6-6.69L316.6-6.69Q316.6-8.3 317.08-9.55 317.55-10.79 318.35-11.71 319.14-12.62 320.2-13.24 321.26-13.87 322.42-14.25 323.58-14.62 324.79-14.78 326-14.94 327.1-14.94L327.1-14.94Q328.86-14.94 330.05-14.83 331.25-14.72 332.23-14.53L332.23-14.53 332.25-16.6Q332.25-17.94 331.86-18.93 331.47-19.92 330.76-20.57 330.05-21.22 329.06-21.53 328.08-21.85 326.85-21.85L326.85-21.85Q325.71-21.85 324.66-21.69 323.61-21.53 322.69-21.28 321.78-21.02 321.01-20.69 320.24-20.36 319.7-20L319.7-20 318.21-23.14Q319.12-23.73 320.19-24.23 321.26-24.73 322.45-25.09 323.63-25.44 324.87-25.65 326.1-25.85 327.29-25.85L327.29-25.85Q329.49-25.85 331.25-25.33 333.01-24.8 334.23-23.71 335.45-22.61 336.11-20.91 336.77-19.21 336.77-16.85L336.77-16.85 336.74-4.2 339.55-4.2 339.55 0 332.2 0ZM326.05-3.1L326.05-3.1Q326.95-3.1 327.86-3.32 328.76-3.54 329.56-3.92 330.37-4.3 331.05-4.8 331.74-5.3 332.2-5.83L332.2-5.83 332.23-11.55 326.95-11.55Q325.63-11.55 324.55-11.25 323.46-10.96 322.67-10.4 321.87-9.84 321.43-9.01 321-8.18 321-7.1L321-7.1Q321-6.1 321.36-5.36 321.73-4.61 322.4-4.11 323.07-3.61 324-3.36 324.93-3.1 326.05-3.1ZM352-33.45L352-25.29 357.93-25.29 357.93-21.61 351.95-21.61 351.88-7.01Q351.88-5.52 352.22-4.59 352.56-3.66 353.32-3.31 354.07-2.95 355.03-2.95L355.03-2.95Q356.05-2.95 356.83-3.14 357.61-3.32 358.54-3.76L358.54-3.76 359.59-0.71Q358.42-0.1 357.13 0.26 355.83 0.61 354.07 0.61L354.07 0.61Q352.41 0.61 351.18 0.21 349.95-0.2 349.11-1.15 348.26-2.1 347.85-3.7 347.43-5.3 347.43-7.69L347.43-7.69 347.51-21.61 343.48-21.61 343.48-25.29 347.56-25.29 347.56-31.35 352-33.45ZM362.93-12.65L362.93-12.65Q362.96-15.65 363.9-18.12 364.84-20.58 366.52-22.35 368.21-24.12 370.53-25.07 372.85-26.03 375.63-26.03L375.63-26.03Q378.44-26.03 380.77-25.07 383.1-24.12 384.76-22.38 386.42-20.63 387.35-18.16 388.28-15.7 388.28-12.7L388.28-12.7Q388.28-9.74 387.35-7.26 386.42-4.79 384.76-3 383.1-1.22 380.77-0.23 378.44 0.76 375.63 0.76L375.63 0.76Q372.77 0.76 370.45-0.22 368.13-1.2 366.47-2.97 364.81-4.74 363.89-7.2 362.96-9.67 362.93-12.65ZM367.74-12.65L367.74-12.65Q367.74-10.47 368.37-8.72 368.99-6.96 370.07-5.73 371.16-4.49 372.59-3.82 374.02-3.15 375.63-3.15L375.63-3.15Q377.31-3.15 378.77-3.81 380.22-4.47 381.29-5.7 382.37-6.93 382.98-8.69 383.59-10.45 383.59-12.65L383.59-12.65Q383.59-14.94 382.98-16.72 382.37-18.51 381.31-19.7 380.24-20.9 378.78-21.51 377.31-22.12 375.63-22.12L375.63-22.12Q374.02-22.12 372.59-21.51 371.16-20.9 370.07-19.7 368.99-18.51 368.37-16.72 367.74-14.94 367.74-12.65ZM411.37-25.44L411.37-19.95 406.73-19.95 406.73-21.51Q405.92-21.51 405.08-21.2 404.24-20.9 403.51-20.28 402.78-19.65 402.23-18.69 401.68-17.72 401.43-16.41L401.43-16.41 401.43-4.2 405.73-4.2 405.73 0 393.18 0 393.18-4.2 396.67-4.2 396.7-21.09 393.18-21.09 393.18-25.29 401.26-25.29 401.26-21.8Q401.7-22.58 402.25-23.25 402.8-23.93 403.47-24.43 404.14-24.93 404.96-25.21 405.78-25.49 406.73-25.49L406.73-25.49Q408-25.49 409.12-25.49 410.25-25.49 411.37-25.44L411.37-25.44ZM431.22-18.51Q431.22-19.53 430.74-20.25 430.26-20.97 429.51-21.42 428.75-21.88 427.82-22.08 426.89-22.29 426.01-22.29L426.01-22.29Q425.04-22.29 424.22-22.07 423.4-21.85 422.82-21.44 422.23-21.02 421.9-20.42 421.57-19.82 421.57-19.09L421.57-19.09Q421.57-17.82 422.34-17.08 423.11-16.33 424.92-15.7L424.92-15.7 429.77-13.99Q432.9-12.94 434.34-11.13 435.78-9.33 435.78-6.81L435.78-6.81Q435.78-5.13 435.11-3.72 434.44-2.32 433.2-1.33 431.97-0.34 430.24 0.21 428.51 0.76 426.38 0.76L426.38 0.76Q423.43 0.76 421.57-0.2 419.72-1.15 418.72-2.71L418.72-2.71 416.18-2.71 416.18-6.91 421.23-6.91Q421.23-5.86 421.68-5.11 422.13-4.37 422.88-3.91 423.62-3.44 424.56-3.22 425.5-3 426.48-3L426.48-3Q427.43-3 428.31-3.23 429.19-3.47 429.86-3.92 430.53-4.37 430.92-5 431.31-5.64 431.31-6.45L431.31-6.45Q431.31-7.67 430.52-8.52 429.73-9.38 427.82-10.06L427.82-10.06 422.99-11.87Q420.03-12.92 418.61-14.54 417.18-16.16 417.18-18.6L417.18-18.6Q417.18-20.21 417.78-21.58 418.37-22.95 419.51-23.94 420.64-24.93 422.28-25.49 423.92-26.05 426.01-26.05L426.01-26.05Q428.72-26.05 430.56-25.29 432.39-24.54 433.85-22.71L433.85-22.71 436.22-22.71 436.22-18.51 431.22-18.51Z" opacity="1" transform="matrix(1,0,0,1,0,0)" fill="#030303" class="wordmark-text-0" data-fill-palette-color="primary" id="text-0"></path></svg></g></svg></g><g transform="matrix(1,0,0,1,0,24.913936114305)"><svg viewBox="0 0 192 10.17239486109586" height="10.17239486109586" width="192"><g transform="matrix(1,0,0,1,0,0)"><svg width="192" viewBox="1 -37.9 910.6 48.25" height="10.17239486109586" data-palette-color="#030303"><path d="M12.55 0.2L7.2 0.1 2.95 0.2Q1.85 0.2 1.85-0.6L1.85-0.6Q1.85-1.05 2.5-1.18 3.15-1.3 4.1-1.95 5.05-2.6 5.45-4.08 5.85-5.55 6.3-13.7 6.75-21.85 6.75-25.55 6.75-29.25 5.55-31.38 4.35-33.5 1.65-33.8L1.65-33.8Q1-33.85 1-34.55L1-34.55Q1-34.85 1.35-35.13 1.7-35.4 2.25-35.4L2.25-35.4 4.15-35.35 6.6-35.45Q7.05-35.45 7.65-35.18 8.25-34.9 8.35-34.68 8.45-34.45 8.9-33.93 9.35-33.4 10.1-32.55 10.85-31.7 11.45-30.9L11.45-30.9Q18.25-22.05 29.65-9.55L29.65-9.55Q29.95-9.2 30.38-8.75 30.8-8.3 30.98-8.08 31.15-7.85 31.35-7.65L31.35-7.65Q31.7-7.3 31.9-7.3L31.9-7.3Q32.4-7.3 32.4-10.4L32.4-10.4 32.4-16.25 32.3-26.5 32.3-26.85Q32.3-31.45 30.7-32.7L30.7-32.7Q30.1-33.15 29.7-33.27 29.3-33.4 28.55-33.55L28.55-33.55Q26.5-33.95 26.5-34.68 26.5-35.4 27.45-35.4L27.45-35.4 32.2-35.35Q32.2-35.35 36.7-35.45L36.7-35.45Q37.55-35.45 37.88-35.27 38.2-35.1 38.2-34.75 38.2-34.4 37.9-34.2L37.9-34.2Q37.5-33.95 36.45-33.6L36.45-33.6Q34.8-32.7 34.8-27.95L34.8-27.95 34.8-26.05 34.25-1.3 34.25-0.3Q34.25 0.85 33.55 0.85L33.55 0.85Q33.1 0.85 32.75 0.5L32.75 0.5Q16.15-18.75 12.93-22.38 9.7-26 9.35-26L9.35-26Q8.85-26 8.85-21.93 8.85-17.85 8.65-12.38 8.45-6.9 8.45-6.4L8.45-6.4Q8.45-4.15 9.22-2.98 10-1.8 10.9-1.65 11.8-1.5 12.58-1.33 13.35-1.15 13.35-0.63 13.35-0.1 13.18 0.05 13 0.2 12.55 0.2L12.55 0.2ZM52.32 0.9Q47.2 0.9 44.17-2.38 41.15-5.65 41.15-10.2 41.15-14.75 44.27-18.15 47.4-21.55 52.52-21.55 57.65-21.55 61.12-18.6 64.6-15.65 64.6-10.4 64.6-5.15 61.02-2.13 57.45 0.9 52.32 0.9ZM51.75-20.2Q49.15-20.2 47.12-18.15 45.1-16.1 45.1-11.4 45.1-6.7 47.85-3.65 50.6-0.6 53.77-0.6 56.95-0.6 58.9-2.78 60.85-4.95 60.85-9.15 60.85-13.35 58.45-16.78 56.05-20.2 51.75-20.2L51.75-20.2ZM90.32 0.9Q85.19 0.9 82.17-2.38 79.14-5.65 79.14-10.2 79.14-14.75 82.27-18.15 85.39-21.55 90.52-21.55 95.64-21.55 99.12-18.6 102.59-15.65 102.59-10.4 102.59-5.15 99.02-2.13 95.44 0.9 90.32 0.9ZM89.74-20.2Q87.14-20.2 85.12-18.15 83.09-16.1 83.09-11.4 83.09-6.7 85.84-3.65 88.59-0.6 91.77-0.6 94.94-0.6 96.89-2.78 98.84-4.95 98.84-9.15 98.84-13.35 96.44-16.78 94.04-20.2 89.74-20.2L89.74-20.2ZM116.94 0L116.94 0 113.29-0.2Q111.99-0.2 109.84-0.1L109.84-0.1 107.69 0Q106.94 0 106.94-0.45 106.94-0.9 107.19-1 107.44-1.1 107.82-1.15 108.19-1.2 108.54-1.45L108.54-1.45Q109.49-2.05 109.59-5.08 109.69-8.1 109.69-9.05L109.69-9.05 109.69-16.25Q109.69-17.85 109.12-18.4 108.54-18.95 107.54-18.95L107.54-18.95 107.04-18.95Q106.09-18.95 106.09-19.5L106.09-19.5Q106.09-20 107.17-20.15 108.24-20.3 108.87-20.48 109.49-20.65 110.52-21.08 111.54-21.5 112.17-21.8 112.79-22.1 112.99-22.1L112.99-22.1 113.09-22.1Q113.54-22.1 113.54-21.5L113.54-21.5 113.44-19.35Q113.44-18.05 113.64-18.05 113.84-18.05 114.04-18.3L114.04-18.3Q114.79-19.35 116.04-20.1L116.04-20.1Q118.29-21.5 120.34-21.5 122.39-21.5 123.99-20.88 125.59-20.25 126.49-19.33 127.39-18.4 127.99-17.2L127.99-17.2Q128.99-15.2 128.99-13.1L128.99-13.1 128.99-12.6 129.04-9.95 129.04-4.85Q129.04-2.95 129.57-2.23 130.09-1.5 132.09-1.2L132.09-1.2Q133.09-1.05 133.09-0.45L133.09-0.45Q133.09 0.05 132.09 0.05L132.09 0.05 127.99-0.2 124.14 0Q123.14 0 123.14-0.65L123.14-0.65Q123.14-1.1 123.74-1.25L123.74-1.25 124.39-1.4Q125.49-1.75 125.49-4.75L125.49-4.75 125.49-11.5Q125.49-15.35 123.59-17.32 121.69-19.3 119.29-19.3 116.89-19.3 115.29-18.15 113.69-17 113.34-16 112.99-15 112.99-8.35L112.99-8.35 112.99-6.45Q112.99-3.95 113.52-2.75 114.04-1.55 115.84-1.4L115.84-1.4Q116.34-1.4 117.12-1.23 117.89-1.05 117.89-0.65L117.89-0.65Q117.89 0 116.94 0ZM146.09 0.95Q141.69 0.95 138.61-1.75 135.54-4.45 135.54-9.58 135.54-14.7 138.36-18.15 141.19-21.6 145.69-21.6L145.69-21.6Q147.79-21.6 149.51-20.85 151.24-20.1 152.19-19.03 153.14-17.95 153.79-16.75L153.79-16.75Q154.89-14.7 154.89-13.65L154.89-13.65Q154.89-12.75 152.84-12.75L152.84-12.75 139.99-12.75Q139.59-12.75 139.51-12.68 139.44-12.6 139.44-12.2L139.44-12.2Q139.44-7.5 141.96-4.8 144.49-2.1 147.89-2.1L147.89-2.1Q149.99-2.1 152.16-3.23 154.34-4.35 154.44-4.35L154.44-4.35Q154.94-4.35 154.94-3.9L154.94-3.9Q154.94-3.3 153.84-2.27 152.74-1.25 151.74-0.6L151.74-0.6Q149.34 0.95 146.09 0.95L146.09 0.95ZM140.39-13.95L140.39-13.95 149.19-14.25Q149.89-14.25 150.06-14.38 150.24-14.5 150.24-14.85L150.24-14.85Q150.24-16.35 148.84-18.35 147.44-20.35 144.94-20.35 142.44-20.35 141.09-18.38 139.74-16.4 139.74-14.65L139.74-14.65Q139.74-13.95 140.39-13.95ZM179.03 0.3L175.48 0.2 171.93 0.3Q169.93 0.3 169.93-0.38 169.93-1.05 170.68-1.3L170.68-1.3Q170.73-1.3 170.88-1.35L170.88-1.35Q172.03-1.75 172.38-2.55 172.73-3.35 172.73-10.3L172.73-10.3 172.73-14.7Q172.73-16.15 172.38-17 172.03-17.85 171.73-18.05 171.43-18.25 170.71-18.38 169.98-18.5 169.66-18.63 169.33-18.75 169.33-19.03 169.33-19.3 169.46-19.45 169.58-19.6 169.96-19.78 170.33-19.95 170.73-20.1L170.73-20.1Q172.13-20.5 173.03-20.9 173.93-21.3 174.41-21.5 174.88-21.7 175.03-21.8L175.03-21.8Q175.38-21.95 175.88-21.95L175.88-21.95Q176.63-21.95 176.63-21L176.63-21 176.33-18.6 176.33-4.9Q176.33-3.4 176.81-2.55 177.28-1.7 177.81-1.5 178.33-1.3 179.03-1.25 179.73-1.2 179.93-1.2L179.93-1.2Q180.63-1.1 180.63-0.5L180.63-0.5Q180.63 0.35 179.78 0.35L179.78 0.35 179.03 0.3ZM174.63-26.65Q173.63-26.65 172.91-27.7 172.18-28.75 172.18-29.43 172.18-30.1 173.06-31.18 173.93-32.25 174.71-32.25 175.48-32.25 176.23-31.23 176.98-30.2 176.98-29.4 176.98-28.6 176.03-27.63 175.08-26.65 174.63-26.65L174.63-26.65ZM198.13-20.05L198.13-20.05 198.33-17.05Q198.33-16.2 198.13-15.9 197.93-15.6 197.56-15.6 197.18-15.6 196.76-16.32 196.33-17.05 195.81-17.9 195.28-18.75 194.11-19.48 192.93-20.2 191.43-20.2 189.93-20.2 188.98-19.48 188.03-18.75 188.03-17.9 188.03-17.05 188.18-16.53 188.33-16 188.71-15.6 189.08-15.2 189.36-14.93 189.63-14.65 190.28-14.35 190.93-14.05 191.26-13.93 191.58-13.8 192.33-13.5L192.33-13.5Q196.88-11.9 198.18-10.38 199.48-8.85 199.48-6 199.48-3.15 196.83-0.75L196.83-0.75Q195.03 0.8 191.88 0.8L191.88 0.8Q189.73 0.8 187.08-0.25L187.08-0.25Q186.33-0.55 186.21-0.58 186.08-0.6 185.81-0.7 185.53-0.8 185.41-0.83 185.28-0.85 185.08-0.95 184.88-1.05 184.81-1.13 184.73-1.2 184.63-1.35L184.63-1.35Q184.48-1.6 184.48-2.15L184.48-2.15 184.48-6.5Q184.48-7.05 184.71-7.43 184.93-7.8 185.33-7.8 185.73-7.8 185.91-7.58 186.08-7.35 186.23-6.65 186.38-5.95 186.53-5.65L186.53-5.65Q188.38-1.05 191.73-1.05L191.73-1.05Q193.28-1.05 194.68-1.88 196.08-2.7 196.08-4.48 196.08-6.25 194.93-7.35 193.78-8.45 192.13-9.08 190.48-9.7 188.83-10.38 187.18-11.05 186.03-12.38 184.88-13.7 184.88-15.7L184.88-15.7Q184.88-18.5 187.13-20.2 189.38-21.9 192.08-21.9 194.78-21.9 196.18-21.48 197.58-21.05 197.86-20.7 198.13-20.35 198.13-20.05ZM224.58 0.2L219.23 0.1 214.98 0.2Q213.88 0.2 213.88-0.6L213.88-0.6Q213.88-1.05 214.53-1.18 215.18-1.3 216.13-1.95 217.08-2.6 217.48-4.08 217.88-5.55 218.33-13.7 218.78-21.85 218.78-25.55 218.78-29.25 217.58-31.38 216.38-33.5 213.68-33.8L213.68-33.8Q213.03-33.85 213.03-34.55L213.03-34.55Q213.03-34.85 213.38-35.13 213.73-35.4 214.28-35.4L214.28-35.4 216.18-35.35 218.63-35.45Q219.08-35.45 219.68-35.18 220.28-34.9 220.38-34.68 220.48-34.45 220.93-33.93 221.38-33.4 222.13-32.55 222.88-31.7 223.48-30.9L223.48-30.9Q230.28-22.05 241.68-9.55L241.68-9.55Q241.98-9.2 242.4-8.75 242.83-8.3 243-8.08 243.18-7.85 243.38-7.65L243.38-7.65Q243.73-7.3 243.93-7.3L243.93-7.3Q244.43-7.3 244.43-10.4L244.43-10.4 244.43-16.25 244.33-26.5 244.33-26.85Q244.33-31.45 242.73-32.7L242.73-32.7Q242.13-33.15 241.73-33.27 241.33-33.4 240.58-33.55L240.58-33.55Q238.53-33.95 238.53-34.68 238.53-35.4 239.48-35.4L239.48-35.4 244.23-35.35Q244.23-35.35 248.73-35.45L248.73-35.45Q249.58-35.45 249.9-35.27 250.23-35.1 250.23-34.75 250.23-34.4 249.93-34.2L249.93-34.2Q249.53-33.95 248.48-33.6L248.48-33.6Q246.83-32.7 246.83-27.95L246.83-27.95 246.83-26.05 246.28-1.3 246.28-0.3Q246.28 0.85 245.58 0.85L245.58 0.85Q245.13 0.85 244.78 0.5L244.78 0.5Q228.18-18.75 224.95-22.38 221.73-26 221.38-26L221.38-26Q220.88-26 220.88-21.93 220.88-17.85 220.68-12.38 220.48-6.9 220.48-6.4L220.48-6.4Q220.48-4.15 221.25-2.98 222.03-1.8 222.93-1.65 223.83-1.5 224.6-1.33 225.38-1.15 225.38-0.63 225.38-0.1 225.2 0.05 225.03 0.2 224.58 0.2L224.58 0.2ZM264.35 0.9Q259.22 0.9 256.2-2.38 253.17-5.65 253.17-10.2 253.17-14.75 256.3-18.15 259.42-21.55 264.55-21.55 269.67-21.55 273.15-18.6 276.62-15.65 276.62-10.4 276.62-5.15 273.05-2.13 269.47 0.9 264.35 0.9ZM263.77-20.2Q261.17-20.2 259.15-18.15 257.12-16.1 257.12-11.4 257.12-6.7 259.87-3.65 262.62-0.6 265.8-0.6 268.97-0.6 270.92-2.78 272.87-4.95 272.87-9.15 272.87-13.35 270.47-16.78 268.07-20.2 263.77-20.2L263.77-20.2ZM281.47-18.55L281.47-18.55 280.52-18.5Q279.67-18.5 279.67-19.2L279.67-19.2Q279.67-19.7 280.12-20.05L280.12-20.05Q282.02-21.3 283.92-23.8L283.92-23.8Q284.72-24.95 285.2-25.48 285.67-26 286.17-26 286.67-26 286.67-24.85L286.67-24.85Q286.67-24.85 286.47-22L286.47-22Q286.47-21.3 286.75-21.15 287.02-21 288.52-21L288.52-21 290.27-21Q292.52-21 293.02-21.25L293.02-21.25Q293.92-21.7 294.12-21.7L294.12-21.7Q294.62-21.7 294.62-21.15L294.62-21.15Q294.62-20.75 293.97-19.58 293.32-18.4 293.02-18.4L293.02-18.4Q290.77-18.4 289.87-18.5 288.97-18.6 288.67-18.63 288.37-18.65 288.15-18.68 287.92-18.7 287.82-18.7L287.82-18.7 287.72-18.75Q286.77-18.75 286.5-18.45 286.22-18.15 286.22-17.1L286.22-17.1 286.02-7.8Q286.02-4.55 286.85-3.28 287.67-2 290.32-2L290.32-2Q291.37-2 292.65-2.48 293.92-2.95 294.02-2.95L294.02-2.95Q294.52-2.95 294.52-2.3 294.52-1.65 292.8-0.58 291.07 0.5 289.07 0.5L289.07 0.5Q282.32 0.5 282.32-5.35L282.32-5.35 282.32-6.1 282.52-17.75Q282.52-18.25 282.32-18.4 282.12-18.55 281.47-18.55ZM302.02-0.25L302.02-0.25 298.47 0Q297.22 0 297.17-0.15 297.12-0.3 297.12-0.5L297.12-0.5Q297.12-1 297.72-1.15L297.72-1.15Q299.17-1.55 299.59-2.43 300.02-3.3 300.02-5L300.02-5 300.22-22.05 300.22-24.5Q300.22-31.3 299.92-32.8 299.62-34.3 298.12-34.3L298.12-34.3 297.47-34.3 297.27-34.35Q296.42-34.35 296.42-34.8 296.42-35.25 296.94-35.52 297.47-35.8 298.44-36.05 299.42-36.3 301.22-37.1 303.02-37.9 303.47-37.9L303.47-37.9Q304.12-37.9 304.12-36.75L304.12-36.75Q304.12-36.5 303.94-35.55 303.77-34.6 303.74-31.88 303.72-29.15 303.64-26.03 303.57-22.9 303.52-21.8L303.52-21.8Q303.42-19.7 303.42-18.85 303.42-18 303.82-18L303.82-18Q303.92-18 304.84-18.93 305.77-19.85 307.39-20.78 309.02-21.7 310.87-21.7L310.87-21.7Q314.92-21.7 317.17-19.3 319.42-16.9 319.42-11.85L319.42-11.85 319.42-4.6Q319.42-3.25 319.92-2.5 320.42-1.75 321.07-1.7L321.07-1.7Q323.77-1.45 323.77-0.65 323.77 0.15 322.22 0.15L322.22 0.15 318.02-0.1 314.17 0.05Q313.02 0.05 313.02-0.45L313.02-0.45Q313.02-1.35 314.37-1.35L314.37-1.35Q314.87-1.35 315.29-1.9 315.72-2.45 315.72-3.6L315.72-3.6 315.77-4.9 315.82-11.9Q315.82-14.95 313.97-17.18 312.12-19.4 309.69-19.4 307.27-19.4 304.77-17.45L304.77-17.45Q303.87-16.75 303.62-15.18 303.37-13.6 303.37-8.2L303.37-8.2 303.37-7.05Q303.37-4.8 303.72-3.4L303.72-3.4Q304.27-1.45 306.47-1.3L306.47-1.3Q307.17-1.25 307.54-1.13 307.92-1 307.92-0.6L307.92-0.6Q307.92 0 307.37 0L307.37 0 306.07-0.05Q304.77-0.1 303.44-0.18 302.12-0.25 302.02-0.25ZM336.27 0.3L332.72 0.2 329.17 0.3Q327.17 0.3 327.17-0.38 327.17-1.05 327.92-1.3L327.92-1.3Q327.97-1.3 328.12-1.35L328.12-1.35Q329.27-1.75 329.62-2.55 329.97-3.35 329.97-10.3L329.97-10.3 329.97-14.7Q329.97-16.15 329.62-17 329.27-17.85 328.97-18.05 328.67-18.25 327.94-18.38 327.22-18.5 326.89-18.63 326.57-18.75 326.57-19.03 326.57-19.3 326.69-19.45 326.82-19.6 327.19-19.78 327.57-19.95 327.97-20.1L327.97-20.1Q329.37-20.5 330.27-20.9 331.17-21.3 331.64-21.5 332.12-21.7 332.27-21.8L332.27-21.8Q332.62-21.95 333.12-21.95L333.12-21.95Q333.87-21.95 333.87-21L333.87-21 333.57-18.6 333.57-4.9Q333.57-3.4 334.04-2.55 334.52-1.7 335.04-1.5 335.57-1.3 336.27-1.25 336.97-1.2 337.17-1.2L337.17-1.2Q337.87-1.1 337.87-0.5L337.87-0.5Q337.87 0.35 337.02 0.35L337.02 0.35 336.27 0.3ZM331.87-26.65Q330.87-26.65 330.14-27.7 329.42-28.75 329.42-29.43 329.42-30.1 330.29-31.18 331.17-32.25 331.94-32.25 332.72-32.25 333.47-31.23 334.22-30.2 334.22-29.4 334.22-28.6 333.27-27.63 332.32-26.65 331.87-26.65L331.87-26.65ZM351.36 0L351.36 0 347.71-0.2Q346.41-0.2 344.26-0.1L344.26-0.1 342.11 0Q341.36 0 341.36-0.45 341.36-0.9 341.61-1 341.86-1.1 342.24-1.15 342.61-1.2 342.96-1.45L342.96-1.45Q343.91-2.05 344.01-5.08 344.11-8.1 344.11-9.05L344.11-9.05 344.11-16.25Q344.11-17.85 343.54-18.4 342.96-18.95 341.96-18.95L341.96-18.95 341.46-18.95Q340.51-18.95 340.51-19.5L340.51-19.5Q340.51-20 341.59-20.15 342.66-20.3 343.29-20.48 343.91-20.65 344.94-21.08 345.96-21.5 346.59-21.8 347.21-22.1 347.41-22.1L347.41-22.1 347.51-22.1Q347.96-22.1 347.96-21.5L347.96-21.5 347.86-19.35Q347.86-18.05 348.06-18.05 348.26-18.05 348.46-18.3L348.46-18.3Q349.21-19.35 350.46-20.1L350.46-20.1Q352.71-21.5 354.76-21.5 356.81-21.5 358.41-20.88 360.01-20.25 360.91-19.33 361.81-18.4 362.41-17.2L362.41-17.2Q363.41-15.2 363.41-13.1L363.41-13.1 363.41-12.6 363.46-9.95 363.46-4.85Q363.46-2.95 363.99-2.23 364.51-1.5 366.51-1.2L366.51-1.2Q367.51-1.05 367.51-0.45L367.51-0.45Q367.51 0.05 366.51 0.05L366.51 0.05 362.41-0.2 358.56 0Q357.56 0 357.56-0.65L357.56-0.65Q357.56-1.1 358.16-1.25L358.16-1.25 358.81-1.4Q359.91-1.75 359.91-4.75L359.91-4.75 359.91-11.5Q359.91-15.35 358.01-17.32 356.11-19.3 353.71-19.3 351.31-19.3 349.71-18.15 348.11-17 347.76-16 347.41-15 347.41-8.35L347.41-8.35 347.41-6.45Q347.41-3.95 347.94-2.75 348.46-1.55 350.26-1.4L350.26-1.4Q350.76-1.4 351.54-1.23 352.31-1.05 352.31-0.65L352.31-0.65Q352.31 0 351.36 0ZM375.06 9.93Q373.11 9.5 371.54 8.2 369.96 6.9 369.96 5.2 369.96 3.5 370.86 2.58 371.76 1.65 372.66 1.2 373.56 0.75 373.56 0.63 373.56 0.5 373.31 0.3 373.06 0.1 372.71-0.15L372.71-0.15Q371.91-0.8 371.91-2.33 371.91-3.85 372.56-4.95 373.21-6.05 373.86-6.6 374.51-7.15 374.51-7.33 374.51-7.5 373.99-7.95 373.46-8.4 372.81-8.97 372.16-9.55 371.64-10.88 371.11-12.2 371.11-13.68 371.11-15.15 371.49-16.32 371.86-17.5 372.74-18.78 373.61-20.05 375.44-20.85 377.26-21.65 379.49-21.65 381.71-21.65 383.11-21.15 384.51-20.65 385.19-20.15 385.86-19.65 386.16-19.65 386.46-19.65 388.61-20.55L388.61-20.55Q389.31-20.85 389.66-21.9 390.01-22.95 390.41-22.95L390.41-22.95Q391.06-22.95 391.06-22.55L391.06-22.55Q391.06-21.35 390.71-19.98 390.36-18.6 389.86-17.82 389.36-17.05 387.91-16.45L387.91-16.45Q388.46-14.95 388.46-13.95L388.46-13.95Q388.46-10.75 386.06-8.55 383.66-6.35 380.21-6.35L380.21-6.35Q378.91-6.35 377.74-6.58 376.56-6.8 376.34-6.8 376.11-6.8 375.71-6.7 375.31-6.6 374.71-6 374.11-5.4 374.11-4.35L374.11-4.35Q374.11-2.65 375.66-2.2 377.21-1.75 380.81-1.75L380.81-1.75 383.11-1.75Q390.36-1.75 390.36 2.65L390.36 2.65Q390.36 4.2 390.01 5L390.01 5Q389.06 7.45 386.11 8.9 383.16 10.35 379.26 10.35L379.26 10.35Q377.01 10.35 375.06 9.93ZM372.86 4.55L372.86 4.55Q372.86 6.75 374.71 7.88 376.56 9 379.46 9 382.36 9 384.84 7.73 387.31 6.45 387.31 4.45L387.31 4.45Q387.31 2.65 385.56 2.2L385.56 2.2Q384.21 1.9 381.76 1.9L381.76 1.9 381.31 1.9Q379.71 1.9 377.41 1.55L377.41 1.55 375.16 1.2Q374.66 1.2 373.76 2.2 372.86 3.2 372.86 4.55ZM379.64-20.55Q377.51-20.55 376.21-18.98 374.91-17.4 374.91-14.45 374.91-11.5 376.34-9.5 377.76-7.5 379.96-7.5 382.16-7.5 383.36-9.22 384.56-10.95 384.56-13.6 384.56-16.25 383.16-18.4 381.76-20.55 379.64-20.55ZM396.21-1.45Q395.31-2.1 395.21-2.23 395.11-2.35 395.11-2.65 395.11-2.95 395.26-3.2 395.41-3.45 395.58-3.63 395.76-3.8 396.11-4.13 396.46-4.45 396.63-4.63 396.81-4.8 397.06-5.15 397.31-5.5 397.51-5.7L397.51-5.7Q398.06-6.25 398.53-6.25 399.01-6.25 399.76-5.65 400.51-5.05 401.36-3.5 402.21-1.95 402.21 0L402.21 0Q402.21 3.15 399.98 5.73 397.76 8.3 396.41 8.3L396.41 8.3Q395.66 8.3 395.66 7.65L395.66 7.65Q395.66 7.15 397.21 5.9L397.21 5.9Q397.81 5.45 398.28 4.53 398.76 3.6 398.76 2.5 398.76 1.4 398.31 0.63 397.86-0.15 397.48-0.48 397.11-0.8 396.21-1.45ZM415.96 0.95Q411.56 0.95 408.48-1.75 405.41-4.45 405.41-9.58 405.41-14.7 408.23-18.15 411.06-21.6 415.56-21.6L415.56-21.6Q417.66-21.6 419.38-20.85 421.11-20.1 422.06-19.03 423.01-17.95 423.66-16.75L423.66-16.75Q424.76-14.7 424.76-13.65L424.76-13.65Q424.76-12.75 422.71-12.75L422.71-12.75 409.86-12.75Q409.46-12.75 409.38-12.68 409.31-12.6 409.31-12.2L409.31-12.2Q409.31-7.5 411.83-4.8 414.36-2.1 417.76-2.1L417.76-2.1Q419.86-2.1 422.03-3.23 424.21-4.35 424.31-4.35L424.31-4.35Q424.81-4.35 424.81-3.9L424.81-3.9Q424.81-3.3 423.71-2.27 422.61-1.25 421.61-0.6L421.61-0.6Q419.21 0.95 415.96 0.95L415.96 0.95ZM410.26-13.95L410.26-13.95 419.06-14.25Q419.76-14.25 419.93-14.38 420.11-14.5 420.11-14.85L420.11-14.85Q420.11-16.35 418.71-18.35 417.31-20.35 414.81-20.35 412.31-20.35 410.96-18.38 409.61-16.4 409.61-14.65L409.61-14.65Q409.61-13.95 410.26-13.95ZM444.15-21.25L447.5-21.2 449.8-21.25Q450.65-21.25 450.93-21.1 451.2-20.95 451.2-20.6 451.2-20.25 450.95-20.1L450.95-20.1Q449.75-19.4 449.25-18.7L449.25-18.7Q448-17 445.65-12 443.3-7 441.35-3.15 439.4 0.7 438.65 0.7L438.65 0.7Q438.15 0.7 437.85 0.18 437.55-0.35 435.88-4.25 434.2-8.15 432.45-12.05 430.7-15.95 429.65-17.63 428.6-19.3 428.08-19.65 427.55-20 427.28-20.23 427-20.45 427-20.8L427-20.8Q427-21.35 427.95-21.35L427.95-21.35 431.5-21.15 434.4-21.1 436.35-21.25Q437.25-21.25 437.25-20.7L437.25-20.7Q437.25-19.85 436.05-19.85L436.05-19.85Q433.95-19.85 433.95-18.45L433.95-18.45Q433.95-17.65 434.75-15.93 435.55-14.2 436.2-12.83 436.85-11.45 437.28-10.53 437.7-9.6 438.4-7.95L438.4-7.95Q439.75-4.75 440.1-4.75L440.1-4.75Q440.6-4.75 443.15-10.8 445.7-16.85 445.7-17.93 445.7-19 445.23-19.43 444.75-19.85 444.15-19.8L444.15-19.8Q442.6-19.6 442.6-20.6L442.6-20.6Q442.6-21.25 444.15-21.25L444.15-21.25ZM463.2 0.95Q458.8 0.95 455.73-1.75 452.65-4.45 452.65-9.58 452.65-14.7 455.48-18.15 458.3-21.6 462.8-21.6L462.8-21.6Q464.9-21.6 466.63-20.85 468.35-20.1 469.3-19.03 470.25-17.95 470.9-16.75L470.9-16.75Q472-14.7 472-13.65L472-13.65Q472-12.75 469.95-12.75L469.95-12.75 457.1-12.75Q456.7-12.75 456.63-12.68 456.55-12.6 456.55-12.2L456.55-12.2Q456.55-7.5 459.08-4.8 461.6-2.1 465-2.1L465-2.1Q467.1-2.1 469.28-3.23 471.45-4.35 471.55-4.35L471.55-4.35Q472.05-4.35 472.05-3.9L472.05-3.9Q472.05-3.3 470.95-2.27 469.85-1.25 468.85-0.6L468.85-0.6Q466.45 0.95 463.2 0.95L463.2 0.95ZM457.5-13.95L457.5-13.95 466.3-14.25Q467-14.25 467.18-14.38 467.35-14.5 467.35-14.85L467.35-14.85Q467.35-16.35 465.95-18.35 464.55-20.35 462.05-20.35 459.55-20.35 458.2-18.38 456.85-16.4 456.85-14.65L456.85-14.65Q456.85-13.95 457.5-13.95ZM476.6-18.15L476.6-18.15 476.05-18.2Q475.1-18.2 475.1-19L475.1-19Q475.1-19.55 475.77-19.83 476.45-20.1 478.27-20.68 480.1-21.25 481.15-21.73 482.2-22.2 482.4-22.2L482.4-22.2Q483.05-22.2 483.05-21.2L483.05-21.2 483-19.85Q483-18.05 483.12-17.88 483.25-17.7 483.37-17.7 483.5-17.7 484.15-18.7 484.8-19.7 486-20.73 487.2-21.75 488.37-21.75 489.55-21.75 490.8-20.93 492.05-20.1 492.05-19.28 492.05-18.45 491.65-17.75L491.65-17.75Q490.95-16.55 490.35-16.55L490.35-16.55Q489.95-16.55 488.92-17.15 487.9-17.75 486.55-17.75 485.2-17.75 484.02-16.65 482.85-15.55 482.85-14.65L482.85-14.65 482.85-9.45 482.9-5.1 482.95-4.2Q482.95-3.15 483.65-2.4 484.35-1.65 484.97-1.55 485.6-1.45 486.05-1.4 486.5-1.35 486.75-1.33 487-1.3 487.3-1.2L487.3-1.2Q487.85-1.1 487.85-0.48 487.85 0.15 487.25 0.15L487.25 0.15 483-0.1 477.8 0.15Q476.9 0.15 476.8-0.05 476.7-0.25 476.7-0.45L476.7-0.45Q476.7-1.1 477.35-1.3L477.35-1.3Q478.65-1.6 478.92-2.58 479.2-3.55 479.2-6.75L479.2-6.75 479.15-14.8 479.1-16.3Q479.1-16.85 478.95-17.2L478.95-17.2Q478.55-18.15 476.6-18.15ZM503.1 9.5L502.95 9.5 500.8 9.55Q499.85 9.55 499.85 8.9L499.85 8.9Q499.85 8.75 500.97 7.35 502.1 5.95 503.25 3.9 504.4 1.85 504.4 0.28 504.4-1.3 501.55-7.5 498.7-13.7 496.6-17.65L496.6-17.65Q496.05-18.65 495.47-19.2 494.9-19.75 494.55-19.8L494.55-19.8Q493.75-19.9 493.75-20.55 493.75-21.2 494.75-21.2L494.75-21.2 500.1-21.1 502.95-21.2Q503.3-21.2 503.57-21.03 503.85-20.85 503.85-20.65L503.85-20.65Q503.85-19.75 502.65-19.75L502.65-19.75 501.9-19.75Q501.1-19.75 501.1-18.5L501.1-18.5Q501.1-17 503.75-11.3L503.75-11.3Q504.15-10.45 504.95-8.6L504.95-8.6Q506.45-5.2 506.75-5.2 507.05-5.2 509.07-10.95 511.1-16.7 511.1-17.8 511.1-18.9 510.62-19.35 510.15-19.8 509.55-19.8L509.55-19.8Q508-19.7 508-20.65L508-20.65Q508-21.25 508.95-21.25L508.95-21.25 512.55-21.2 515.65-21.25Q516.7-21.25 516.7-20.6L516.7-20.6Q516.7-20.1 515.82-19.88 514.95-19.65 514.65-19.25L514.65-19.25Q513.85-18.1 511.95-12.95L511.95-12.95 507.5-1.1Q506.95 0.35 506.4 1.88 505.85 3.4 505.5 4.35 505.15 5.3 504.8 6.25 504.45 7.2 504.25 7.73 504.05 8.25 503.85 8.7L503.85 8.7Q503.45 9.5 503.1 9.5L503.1 9.5ZM529.82 0.9Q524.69 0.9 521.67-2.38 518.64-5.65 518.64-10.2 518.64-14.75 521.77-18.15 524.89-21.55 530.02-21.55 535.14-21.55 538.62-18.6 542.09-15.65 542.09-10.4 542.09-5.15 538.52-2.13 534.94 0.9 529.82 0.9ZM529.24-20.2Q526.64-20.2 524.62-18.15 522.59-16.1 522.59-11.4 522.59-6.7 525.34-3.65 528.09-0.6 531.27-0.6 534.44-0.6 536.39-2.78 538.34-4.95 538.34-9.15 538.34-13.35 535.94-16.78 533.54-20.2 529.24-20.2L529.24-20.2ZM556.44 0L556.44 0 552.79-0.2Q551.49-0.2 549.34-0.1L549.34-0.1 547.19 0Q546.44 0 546.44-0.45 546.44-0.9 546.69-1 546.94-1.1 547.32-1.15 547.69-1.2 548.04-1.45L548.04-1.45Q548.99-2.05 549.09-5.08 549.19-8.1 549.19-9.05L549.19-9.05 549.19-16.25Q549.19-17.85 548.62-18.4 548.04-18.95 547.04-18.95L547.04-18.95 546.54-18.95Q545.59-18.95 545.59-19.5L545.59-19.5Q545.59-20 546.67-20.15 547.74-20.3 548.37-20.48 548.99-20.65 550.02-21.08 551.04-21.5 551.67-21.8 552.29-22.1 552.49-22.1L552.49-22.1 552.59-22.1Q553.04-22.1 553.04-21.5L553.04-21.5 552.94-19.35Q552.94-18.05 553.14-18.05 553.34-18.05 553.54-18.3L553.54-18.3Q554.29-19.35 555.54-20.1L555.54-20.1Q557.79-21.5 559.84-21.5 561.89-21.5 563.49-20.88 565.09-20.25 565.99-19.33 566.89-18.4 567.49-17.2L567.49-17.2Q568.49-15.2 568.49-13.1L568.49-13.1 568.49-12.6 568.54-9.95 568.54-4.85Q568.54-2.95 569.07-2.23 569.59-1.5 571.59-1.2L571.59-1.2Q572.59-1.05 572.59-0.45L572.59-0.45Q572.59 0.05 571.59 0.05L571.59 0.05 567.49-0.2 563.64 0Q562.64 0 562.64-0.65L562.64-0.65Q562.64-1.1 563.24-1.25L563.24-1.25 563.89-1.4Q564.99-1.75 564.99-4.75L564.99-4.75 564.99-11.5Q564.99-15.35 563.09-17.32 561.19-19.3 558.79-19.3 556.39-19.3 554.79-18.15 553.19-17 552.84-16 552.49-15 552.49-8.35L552.49-8.35 552.49-6.45Q552.49-3.95 553.02-2.75 553.54-1.55 555.34-1.4L555.34-1.4Q555.84-1.4 556.62-1.23 557.39-1.05 557.39-0.65L557.39-0.65Q557.39 0 556.44 0ZM585.59 0.95Q581.19 0.95 578.11-1.75 575.04-4.45 575.04-9.58 575.04-14.7 577.86-18.15 580.69-21.6 585.19-21.6L585.19-21.6Q587.29-21.6 589.01-20.85 590.74-20.1 591.69-19.03 592.64-17.95 593.29-16.75L593.29-16.75Q594.39-14.7 594.39-13.65L594.39-13.65Q594.39-12.75 592.34-12.75L592.34-12.75 579.49-12.75Q579.09-12.75 579.01-12.68 578.94-12.6 578.94-12.2L578.94-12.2Q578.94-7.5 581.46-4.8 583.99-2.1 587.39-2.1L587.39-2.1Q589.49-2.1 591.66-3.23 593.84-4.35 593.94-4.35L593.94-4.35Q594.44-4.35 594.44-3.9L594.44-3.9Q594.44-3.3 593.34-2.27 592.24-1.25 591.24-0.6L591.24-0.6Q588.84 0.95 585.59 0.95L585.59 0.95ZM579.89-13.95L579.89-13.95 588.69-14.25Q589.39-14.25 589.56-14.38 589.74-14.5 589.74-14.85L589.74-14.85Q589.74-16.35 588.34-18.35 586.94-20.35 584.44-20.35 581.94-20.35 580.59-18.38 579.24-16.4 579.24-14.65L579.24-14.65Q579.24-13.95 579.89-13.95ZM618.53 0.3L614.98 0.2 611.43 0.3Q609.43 0.3 609.43-0.38 609.43-1.05 610.18-1.3L610.18-1.3Q610.23-1.3 610.38-1.35L610.38-1.35Q611.53-1.75 611.88-2.55 612.23-3.35 612.23-10.3L612.23-10.3 612.23-14.7Q612.23-16.15 611.88-17 611.53-17.85 611.23-18.05 610.93-18.25 610.21-18.38 609.48-18.5 609.16-18.63 608.83-18.75 608.83-19.03 608.83-19.3 608.96-19.45 609.08-19.6 609.46-19.78 609.83-19.95 610.23-20.1L610.23-20.1Q611.63-20.5 612.53-20.9 613.43-21.3 613.91-21.5 614.38-21.7 614.53-21.8L614.53-21.8Q614.88-21.95 615.38-21.95L615.38-21.95Q616.13-21.95 616.13-21L616.13-21 615.83-18.6 615.83-4.9Q615.83-3.4 616.31-2.55 616.78-1.7 617.31-1.5 617.83-1.3 618.53-1.25 619.23-1.2 619.43-1.2L619.43-1.2Q620.13-1.1 620.13-0.5L620.13-0.5Q620.13 0.35 619.28 0.35L619.28 0.35 618.53 0.3ZM614.13-26.65Q613.13-26.65 612.41-27.7 611.68-28.75 611.68-29.43 611.68-30.1 612.56-31.18 613.43-32.25 614.21-32.25 614.98-32.25 615.73-31.23 616.48-30.2 616.48-29.4 616.48-28.6 615.53-27.63 614.58-26.65 614.13-26.65L614.13-26.65ZM637.63-20.05L637.63-20.05 637.83-17.05Q637.83-16.2 637.63-15.9 637.43-15.6 637.05-15.6 636.68-15.6 636.25-16.32 635.83-17.05 635.3-17.9 634.78-18.75 633.6-19.48 632.43-20.2 630.93-20.2 629.43-20.2 628.48-19.48 627.53-18.75 627.53-17.9 627.53-17.05 627.68-16.53 627.83-16 628.2-15.6 628.58-15.2 628.85-14.93 629.13-14.65 629.78-14.35 630.43-14.05 630.75-13.93 631.08-13.8 631.83-13.5L631.83-13.5Q636.38-11.9 637.68-10.38 638.98-8.85 638.98-6 638.98-3.15 636.33-0.75L636.33-0.75Q634.53 0.8 631.38 0.8L631.38 0.8Q629.23 0.8 626.58-0.25L626.58-0.25Q625.83-0.55 625.7-0.58 625.58-0.6 625.3-0.7 625.03-0.8 624.9-0.83 624.78-0.85 624.58-0.95 624.38-1.05 624.3-1.13 624.23-1.2 624.13-1.35L624.13-1.35Q623.98-1.6 623.98-2.15L623.98-2.15 623.98-6.5Q623.98-7.05 624.2-7.43 624.43-7.8 624.83-7.8 625.23-7.8 625.4-7.58 625.58-7.35 625.73-6.65 625.88-5.95 626.03-5.65L626.03-5.65Q627.88-1.05 631.23-1.05L631.23-1.05Q632.78-1.05 634.18-1.88 635.58-2.7 635.58-4.48 635.58-6.25 634.43-7.35 633.28-8.45 631.63-9.08 629.98-9.7 628.33-10.38 626.68-11.05 625.53-12.38 624.38-13.7 624.38-15.7L624.38-15.7Q624.38-18.5 626.63-20.2 628.88-21.9 631.58-21.9 634.28-21.9 635.68-21.48 637.08-21.05 637.35-20.7 637.63-20.35 637.63-20.05ZM667.92-20.05L667.92-20.05 668.12-17.05Q668.12-16.2 667.92-15.9 667.72-15.6 667.35-15.6 666.97-15.6 666.55-16.32 666.12-17.05 665.6-17.9 665.07-18.75 663.9-19.48 662.72-20.2 661.22-20.2 659.72-20.2 658.77-19.48 657.82-18.75 657.82-17.9 657.82-17.05 657.97-16.53 658.12-16 658.5-15.6 658.87-15.2 659.15-14.93 659.42-14.65 660.07-14.35 660.72-14.05 661.05-13.93 661.37-13.8 662.12-13.5L662.12-13.5Q666.67-11.9 667.97-10.38 669.27-8.85 669.27-6 669.27-3.15 666.62-0.75L666.62-0.75Q664.82 0.8 661.67 0.8L661.67 0.8Q659.52 0.8 656.87-0.25L656.87-0.25Q656.12-0.55 656-0.58 655.87-0.6 655.6-0.7 655.32-0.8 655.2-0.83 655.07-0.85 654.87-0.95 654.67-1.05 654.6-1.13 654.52-1.2 654.42-1.35L654.42-1.35Q654.27-1.6 654.27-2.15L654.27-2.15 654.27-6.5Q654.27-7.05 654.5-7.43 654.72-7.8 655.12-7.8 655.52-7.8 655.7-7.58 655.87-7.35 656.02-6.65 656.17-5.95 656.32-5.65L656.32-5.65Q658.17-1.05 661.52-1.05L661.52-1.05Q663.07-1.05 664.47-1.88 665.87-2.7 665.87-4.48 665.87-6.25 664.72-7.35 663.57-8.45 661.92-9.08 660.27-9.7 658.62-10.38 656.97-11.05 655.82-12.38 654.67-13.7 654.67-15.7L654.67-15.7Q654.67-18.5 656.92-20.2 659.17-21.9 661.87-21.9 664.57-21.9 665.97-21.48 667.37-21.05 667.65-20.7 667.92-20.35 667.92-20.05ZM684.3 0.9Q679.17 0.9 676.15-2.38 673.12-5.65 673.12-10.2 673.12-14.75 676.25-18.15 679.37-21.55 684.5-21.55 689.62-21.55 693.1-18.6 696.57-15.65 696.57-10.4 696.57-5.15 693-2.13 689.42 0.9 684.3 0.9ZM683.72-20.2Q681.12-20.2 679.1-18.15 677.07-16.1 677.07-11.4 677.07-6.7 679.82-3.65 682.57-0.6 685.75-0.6 688.92-0.6 690.87-2.78 692.82-4.95 692.82-9.15 692.82-13.35 690.42-16.78 688.02-20.2 683.72-20.2L683.72-20.2ZM703.47-10.4L703.47-10.4 703.42-16.5Q703.42-17.7 702.89-18.2 702.37-18.7 701.72-18.7L701.72-18.7Q700.07-18.6 700.07-19.4L700.07-19.4Q700.07-19.85 700.67-20.08 701.27-20.3 702.47-20.55 703.67-20.8 704.22-21.03 704.77-21.25 705.12-21.45 705.47-21.65 705.62-21.7L705.62-21.7Q706.07-21.9 706.67-21.9 707.27-21.9 707.27-20.45L707.27-20.45 707.02-18.35Q707.02-17.75 707.32-17.75L707.32-17.75Q707.37-17.75 707.64-18.13 707.92-18.5 708.39-19.03 708.87-19.55 709.57-20.1L709.57-20.1Q711.27-21.35 713.59-21.35 715.92-21.35 717.27-20.73 718.62-20.1 719.14-19.38 719.67-18.65 720.02-18.03 720.37-17.4 720.44-17.4 720.52-17.4 721.39-18.43 722.27-19.45 723.89-20.48 725.52-21.5 727.32-21.5L727.32-21.5Q730.97-21.5 732.94-19.35 734.92-17.2 735.24-14.13 735.57-11.05 735.57-7.65L735.57-7.65 735.57-6.05Q735.57-3.8 735.82-2.8 736.07-1.8 736.97-1.5L736.97-1.5Q737.02-1.5 737.42-1.43 737.82-1.35 738.12-1.3L738.12-1.3Q738.87-1.15 738.87-0.55L738.87-0.55Q738.87 0.2 737.22 0.2L737.22 0.2 733.92 0 730.32 0.2Q729.12 0.2 729.12-0.33 729.12-0.85 730.17-1.25 731.22-1.65 731.42-2.1L731.42-2.1Q731.62-2.65 731.62-4.4L731.62-4.4 731.62-5.2 731.57-10.5 731.42-13.8Q731.42-14.35 731.27-14.83 731.12-15.3 731.09-15.55 731.07-15.8 730.82-16.15 730.57-16.5 730.52-16.6L730.52-16.6Q730.32-17 729.72-17.6L729.72-17.6Q728.42-19.15 725.97-19.15L725.97-19.15Q724.82-19.15 723.57-18.55 722.32-17.95 721.57-17.32 720.82-16.7 720.82-16.5 720.82-16.3 720.92-15.75L720.92-15.75Q721.12-14.1 721.12-10.1L721.12-10.1 721.12-5.85Q721.12-3.55 721.77-2.48 722.42-1.4 724.57-1.1L724.57-1.1Q725.07-1.05 725.27-0.78 725.47-0.5 725.47-0.3L725.47-0.3Q725.47 0.25 724.52 0.25L724.52 0.25 720.87 0 716.32 0.25Q715.22 0.25 715.22-0.4L715.22-0.4Q715.22-0.75 715.42-0.93 715.62-1.1 716.14-1.3 716.67-1.5 716.84-1.6 717.02-1.7 717.27-2.45 717.52-3.2 717.52-3.95L717.52-3.95 717.52-4.9 717.57-6.9 717.57-9.95 717.52-12.6 717.47-13.1Q717.47-15.75 716.12-17.35 714.77-18.95 712.52-18.95 710.27-18.95 708.62-17.85 706.97-16.75 706.97-15.3L706.97-15.3 706.97-5.2Q706.97-3.4 707.62-2.45 708.27-1.5 709.07-1.38 709.87-1.25 710.52-1.1 711.17-0.95 711.17-0.6L711.17-0.6Q711.17-0.15 711.02 0 710.87 0.15 710.12 0.15L710.12 0.15 705.92 0 701.97 0.15Q700.77 0.15 700.77-0.6L700.77-0.6Q700.77-1.15 701.67-1.3L701.67-1.3Q702.02-1.35 702.42-1.73 702.82-2.1 703.14-3.15 703.47-4.2 703.47-10.4ZM751.87 0.95Q747.47 0.95 744.39-1.75 741.32-4.45 741.32-9.58 741.32-14.7 744.14-18.15 746.97-21.6 751.47-21.6L751.47-21.6Q753.57-21.6 755.29-20.85 757.02-20.1 757.97-19.03 758.92-17.95 759.57-16.75L759.57-16.75Q760.67-14.7 760.67-13.65L760.67-13.65Q760.67-12.75 758.62-12.75L758.62-12.75 745.77-12.75Q745.37-12.75 745.29-12.68 745.22-12.6 745.22-12.2L745.22-12.2Q745.22-7.5 747.74-4.8 750.27-2.1 753.67-2.1L753.67-2.1Q755.77-2.1 757.94-3.23 760.12-4.35 760.22-4.35L760.22-4.35Q760.72-4.35 760.72-3.9L760.72-3.9Q760.72-3.3 759.62-2.27 758.52-1.25 757.52-0.6L757.52-0.6Q755.12 0.95 751.87 0.95L751.87 0.95ZM746.17-13.95L746.17-13.95 754.97-14.25Q755.67-14.25 755.84-14.38 756.02-14.5 756.02-14.85L756.02-14.85Q756.02-16.35 754.62-18.35 753.22-20.35 750.72-20.35 748.22-20.35 746.87-18.38 745.52-16.4 745.52-14.65L745.52-14.65Q745.52-13.95 746.17-13.95ZM765.56-18.55L765.56-18.55 764.61-18.5Q763.76-18.5 763.76-19.2L763.76-19.2Q763.76-19.7 764.21-20.05L764.21-20.05Q766.11-21.3 768.01-23.8L768.01-23.8Q768.81-24.95 769.29-25.48 769.76-26 770.26-26 770.76-26 770.76-24.85L770.76-24.85Q770.76-24.85 770.56-22L770.56-22Q770.56-21.3 770.84-21.15 771.11-21 772.61-21L772.61-21 774.36-21Q776.61-21 777.11-21.25L777.11-21.25Q778.01-21.7 778.21-21.7L778.21-21.7Q778.71-21.7 778.71-21.15L778.71-21.15Q778.71-20.75 778.06-19.58 777.41-18.4 777.11-18.4L777.11-18.4Q774.86-18.4 773.96-18.5 773.06-18.6 772.76-18.63 772.46-18.65 772.24-18.68 772.01-18.7 771.91-18.7L771.91-18.7 771.81-18.75Q770.86-18.75 770.59-18.45 770.31-18.15 770.31-17.1L770.31-17.1 770.11-7.8Q770.11-4.55 770.94-3.28 771.76-2 774.41-2L774.41-2Q775.46-2 776.74-2.48 778.01-2.95 778.11-2.95L778.11-2.95Q778.61-2.95 778.61-2.3 778.61-1.65 776.89-0.58 775.16 0.5 773.16 0.5L773.16 0.5Q766.41 0.5 766.41-5.35L766.41-5.35 766.41-6.1 766.61-17.75Q766.61-18.25 766.41-18.4 766.21-18.55 765.56-18.55ZM786.11-0.25L786.11-0.25 782.56 0Q781.31 0 781.26-0.15 781.21-0.3 781.21-0.5L781.21-0.5Q781.21-1 781.81-1.15L781.81-1.15Q783.26-1.55 783.69-2.43 784.11-3.3 784.11-5L784.11-5 784.31-22.05 784.31-24.5Q784.31-31.3 784.01-32.8 783.71-34.3 782.21-34.3L782.21-34.3 781.56-34.3 781.36-34.35Q780.51-34.35 780.51-34.8 780.51-35.25 781.04-35.52 781.56-35.8 782.54-36.05 783.51-36.3 785.31-37.1 787.11-37.9 787.56-37.9L787.56-37.9Q788.21-37.9 788.21-36.75L788.21-36.75Q788.21-36.5 788.04-35.55 787.86-34.6 787.84-31.88 787.81-29.15 787.74-26.03 787.66-22.9 787.61-21.8L787.61-21.8Q787.51-19.7 787.51-18.85 787.51-18 787.91-18L787.91-18Q788.01-18 788.94-18.93 789.86-19.85 791.49-20.78 793.11-21.7 794.96-21.7L794.96-21.7Q799.01-21.7 801.26-19.3 803.51-16.9 803.51-11.85L803.51-11.85 803.51-4.6Q803.51-3.25 804.01-2.5 804.51-1.75 805.16-1.7L805.16-1.7Q807.86-1.45 807.86-0.65 807.86 0.15 806.31 0.15L806.31 0.15 802.11-0.1 798.26 0.05Q797.11 0.05 797.11-0.45L797.11-0.45Q797.11-1.35 798.46-1.35L798.46-1.35Q798.96-1.35 799.39-1.9 799.81-2.45 799.81-3.6L799.81-3.6 799.86-4.9 799.91-11.9Q799.91-14.95 798.06-17.18 796.21-19.4 793.79-19.4 791.36-19.4 788.86-17.45L788.86-17.45Q787.96-16.75 787.71-15.18 787.46-13.6 787.46-8.2L787.46-8.2 787.46-7.05Q787.46-4.8 787.81-3.4L787.81-3.4Q788.36-1.45 790.56-1.3L790.56-1.3Q791.26-1.25 791.64-1.13 792.01-1 792.01-0.6L792.01-0.6Q792.01 0 791.46 0L791.46 0 790.16-0.05Q788.86-0.1 787.54-0.18 786.21-0.25 786.11-0.25ZM820.36 0.3L816.81 0.2 813.26 0.3Q811.26 0.3 811.26-0.38 811.26-1.05 812.01-1.3L812.01-1.3Q812.06-1.3 812.21-1.35L812.21-1.35Q813.36-1.75 813.71-2.55 814.06-3.35 814.06-10.3L814.06-10.3 814.06-14.7Q814.06-16.15 813.71-17 813.36-17.85 813.06-18.05 812.76-18.25 812.03-18.38 811.31-18.5 810.98-18.63 810.66-18.75 810.66-19.03 810.66-19.3 810.78-19.45 810.91-19.6 811.28-19.78 811.66-19.95 812.06-20.1L812.06-20.1Q813.46-20.5 814.36-20.9 815.26-21.3 815.73-21.5 816.21-21.7 816.36-21.8L816.36-21.8Q816.71-21.95 817.21-21.95L817.21-21.95Q817.96-21.95 817.96-21L817.96-21 817.66-18.6 817.66-4.9Q817.66-3.4 818.13-2.55 818.61-1.7 819.13-1.5 819.66-1.3 820.36-1.25 821.06-1.2 821.26-1.2L821.26-1.2Q821.96-1.1 821.96-0.5L821.96-0.5Q821.96 0.35 821.11 0.35L821.11 0.35 820.36 0.3ZM815.96-26.65Q814.96-26.65 814.23-27.7 813.51-28.75 813.51-29.43 813.51-30.1 814.38-31.18 815.26-32.25 816.03-32.25 816.81-32.25 817.56-31.23 818.31-30.2 818.31-29.4 818.31-28.6 817.36-27.63 816.41-26.65 815.96-26.65L815.96-26.65ZM835.46 0L835.46 0 831.81-0.2Q830.51-0.2 828.36-0.1L828.36-0.1 826.21 0Q825.46 0 825.46-0.45 825.46-0.9 825.71-1 825.96-1.1 826.33-1.15 826.71-1.2 827.06-1.45L827.06-1.45Q828.01-2.05 828.11-5.08 828.21-8.1 828.21-9.05L828.21-9.05 828.21-16.25Q828.21-17.85 827.63-18.4 827.06-18.95 826.06-18.95L826.06-18.95 825.56-18.95Q824.61-18.95 824.61-19.5L824.61-19.5Q824.61-20 825.68-20.15 826.76-20.3 827.38-20.48 828.01-20.65 829.03-21.08 830.06-21.5 830.68-21.8 831.31-22.1 831.51-22.1L831.51-22.1 831.61-22.1Q832.06-22.1 832.06-21.5L832.06-21.5 831.96-19.35Q831.96-18.05 832.16-18.05 832.36-18.05 832.56-18.3L832.56-18.3Q833.31-19.35 834.56-20.1L834.56-20.1Q836.81-21.5 838.86-21.5 840.91-21.5 842.51-20.88 844.11-20.25 845.01-19.33 845.91-18.4 846.51-17.2L846.51-17.2Q847.51-15.2 847.51-13.1L847.51-13.1 847.51-12.6 847.56-9.95 847.56-4.85Q847.56-2.95 848.08-2.23 848.61-1.5 850.61-1.2L850.61-1.2Q851.61-1.05 851.61-0.45L851.61-0.45Q851.61 0.05 850.61 0.05L850.61 0.05 846.51-0.2 842.66 0Q841.66 0 841.66-0.65L841.66-0.65Q841.66-1.1 842.26-1.25L842.26-1.25 842.91-1.4Q844.01-1.75 844.01-4.75L844.01-4.75 844.01-11.5Q844.01-15.35 842.11-17.32 840.21-19.3 837.81-19.3 835.41-19.3 833.81-18.15 832.21-17 831.86-16 831.51-15 831.51-8.35L831.51-8.35 831.51-6.45Q831.51-3.95 832.03-2.75 832.56-1.55 834.36-1.4L834.36-1.4Q834.86-1.4 835.63-1.23 836.41-1.05 836.41-0.65L836.41-0.65Q836.41 0 835.46 0ZM859.15 9.93Q857.2 9.5 855.63 8.2 854.05 6.9 854.05 5.2 854.05 3.5 854.95 2.58 855.85 1.65 856.75 1.2 857.65 0.75 857.65 0.63 857.65 0.5 857.4 0.3 857.15 0.1 856.8-0.15L856.8-0.15Q856-0.8 856-2.33 856-3.85 856.65-4.95 857.3-6.05 857.95-6.6 858.6-7.15 858.6-7.33 858.6-7.5 858.08-7.95 857.55-8.4 856.9-8.97 856.25-9.55 855.73-10.88 855.2-12.2 855.2-13.68 855.2-15.15 855.58-16.32 855.95-17.5 856.83-18.78 857.7-20.05 859.53-20.85 861.35-21.65 863.58-21.65 865.8-21.65 867.2-21.15 868.6-20.65 869.28-20.15 869.95-19.65 870.25-19.65 870.55-19.65 872.7-20.55L872.7-20.55Q873.4-20.85 873.75-21.9 874.1-22.95 874.5-22.95L874.5-22.95Q875.15-22.95 875.15-22.55L875.15-22.55Q875.15-21.35 874.8-19.98 874.45-18.6 873.95-17.82 873.45-17.05 872-16.45L872-16.45Q872.55-14.95 872.55-13.95L872.55-13.95Q872.55-10.75 870.15-8.55 867.75-6.35 864.3-6.35L864.3-6.35Q863-6.35 861.83-6.58 860.65-6.8 860.43-6.8 860.2-6.8 859.8-6.7 859.4-6.6 858.8-6 858.2-5.4 858.2-4.35L858.2-4.35Q858.2-2.65 859.75-2.2 861.3-1.75 864.9-1.75L864.9-1.75 867.2-1.75Q874.45-1.75 874.45 2.65L874.45 2.65Q874.45 4.2 874.1 5L874.1 5Q873.15 7.45 870.2 8.9 867.25 10.35 863.35 10.35L863.35 10.35Q861.1 10.35 859.15 9.93ZM856.95 4.55L856.95 4.55Q856.95 6.75 858.8 7.88 860.65 9 863.55 9 866.45 9 868.93 7.73 871.4 6.45 871.4 4.45L871.4 4.45Q871.4 2.65 869.65 2.2L869.65 2.2Q868.3 1.9 865.85 1.9L865.85 1.9 865.4 1.9Q863.8 1.9 861.5 1.55L861.5 1.55 859.25 1.2Q858.75 1.2 857.85 2.2 856.95 3.2 856.95 4.55ZM863.73-20.55Q861.6-20.55 860.3-18.98 859-17.4 859-14.45 859-11.5 860.43-9.5 861.85-7.5 864.05-7.5 866.25-7.5 867.45-9.22 868.65-10.95 868.65-13.6 868.65-16.25 867.25-18.4 865.85-20.55 863.73-20.55ZM880.75-1.05Q879.2-2.15 879.2-2.75 879.2-3.35 880.75-4.7L880.75-4.7Q880.95-4.9 881.33-5.4 881.7-5.9 882.08-6.18 882.45-6.45 882.85-6.45 883.25-6.45 884.9-4.5L884.9-4.5Q885.05-4.35 885.5-4L885.5-4Q886.4-3.15 886.4-2.83 886.4-2.5 886.15-2.23 885.9-1.95 885.4-1.55L885.4-1.55Q885.4-1.55 884.65-0.95L884.65-0.95Q884.45-0.75 884.1-0.25L884.1-0.25Q883.3 0.8 882.8 0.8 882.3 0.8 881.6-0.08 880.9-0.95 880.75-1.05L880.75-1.05ZM893.35-1.05Q891.8-2.15 891.8-2.75 891.8-3.35 893.35-4.7L893.35-4.7Q893.55-4.9 893.92-5.4 894.3-5.9 894.67-6.18 895.05-6.45 895.45-6.45 895.85-6.45 897.5-4.5L897.5-4.5Q897.65-4.35 898.1-4L898.1-4Q899-3.15 899-2.83 899-2.5 898.75-2.23 898.5-1.95 898-1.55L898-1.55Q898-1.55 897.25-0.95L897.25-0.95Q897.05-0.75 896.7-0.25L896.7-0.25Q895.9 0.8 895.4 0.8 894.9 0.8 894.2-0.08 893.5-0.95 893.35-1.05L893.35-1.05ZM905.95-1.05Q904.4-2.15 904.4-2.75 904.4-3.35 905.95-4.7L905.95-4.7Q906.15-4.9 906.52-5.4 906.9-5.9 907.27-6.18 907.65-6.45 908.05-6.45 908.45-6.45 910.1-4.5L910.1-4.5Q910.25-4.35 910.7-4L910.7-4Q911.6-3.15 911.6-2.83 911.6-2.5 911.35-2.23 911.1-1.95 910.6-1.55L910.6-1.55Q910.6-1.55 909.85-0.95L909.85-0.95Q909.65-0.75 909.3-0.25L909.3-0.25Q908.5 0.8 908 0.8 907.5 0.8 906.8-0.08 906.1-0.95 905.95-1.05L905.95-1.05Z" opacity="1" transform="matrix(1,0,0,1,0,0)" fill="#030303" class="slogan-text-1" data-fill-palette-color="secondary" id="text-1"></path></svg></g></svg></g></svg></g></svg></g><g transform="matrix(1,0,0,1,71.18594055016854,0)"><svg viewBox="0 0 49.62811889966291 48.48930940800398" height="48.48930940800398" width="49.62811889966291"><g><svg xmlns="http://www.w3.org/2000/svg" xmlns:xlink="http://www.w3.org/1999/xlink" version="1.1" x="0" y="0" viewBox="8.6 9.6 82.80000000000001 80.90000000000002" style="enable-background:new 0 0 100 100;" xml:space="preserve" height="48.48930940800398" width="49.62811889966291" class="icon-icon-0" data-fill-palette-color="accent" id="icon-0"><g fill="#030303" data-fill-palette-color="accent"><path d="M50 60.4c5.7 0 10.4-4.7 10.4-10.4 0-2.3-0.8-4.6-2.2-6.4l15.9-15.9c1.9 1.7 4.4 2.7 6.9 2.7 5.7 0 10.4-4.7 10.4-10.4S86.7 9.6 81 9.6 70.6 14.3 70.6 20c0 1.3 0.2 2.4 0.7 3.7L54.4 40.6c-1.4-0.7-2.9-1-4.4-1-5.7 0-10.4 4.7-10.4 10.4S44.3 60.4 50 60.4z" fill="#030303" data-fill-palette-color="accent"></path><path d="M50 30.4c5.7 0 10.4-4.7 10.4-10.4S55.7 9.6 50 9.6 39.6 14.3 39.6 20 44.3 30.4 50 30.4z" fill="#030303" data-fill-palette-color="accent"></path><path d="M81 39.6c-5.7 0-10.4 4.7-10.4 10.4S75.3 60.4 81 60.4 91.4 55.7 91.4 50 86.7 39.6 81 39.6z" fill="#030303" data-fill-palette-color="accent"></path><path d="M19 69.6c-5.7 0-10.4 4.7-10.4 10.4S13.3 90.4 19 90.4 29.4 85.7 29.4 80 24.7 69.6 19 69.6z" fill="#030303" data-fill-palette-color="accent"></path><path d="M81 69.6c-4.8 0-9 3.3-10.1 8H60.1c-1.1-4.7-5.3-8-10.1-8-3 0-5.8 1.3-7.7 3.5L26.3 57.3c1.9-2 3-4.6 3-7.3 0-4.8-3.3-9-8-10.1v-9.8c4.7-1.1 8-5.3 8-10.1 0-5.7-4.7-10.4-10.4-10.4S8.6 14.3 8.6 20c0 4.8 3.3 9 8 10.1v9.8c-4.7 1.1-8 5.3-8 10.1 0 5.7 4.7 10.4 10.4 10.4 1.1 0 2.2-0.2 3.2-0.5l17.7 17.7c-0.2 0.9-0.3 1.6-0.3 2.5 0 5.7 4.7 10.4 10.4 10.4 4.8 0 9-3.3 10.1-8h10.8c1.1 4.7 5.3 8 10.1 8 5.7 0 10.4-4.7 10.4-10.4S86.7 69.6 81 69.6z" fill="#030303" data-fill-palette-color="accent"></path></g></svg></g></svg></g><g></g></svg></g></svg></g></svg></g></svg></g><defs></defs></svg><rect width="320" height="360" fill="none" stroke="none" visibility="hidden"></rect></g></svg></g></svg>