<?xml version="1.0" encoding="utf-8"?>
<!-- Generator: Adobe Illustrator 27.5.0, SVG Export Plug-In . SVG Version: 6.00 Build 0)  -->
<svg version="1.1" id="Layer_1" xmlns="http://www.w3.org/2000/svg" xmlns:xlink="http://www.w3.org/1999/xlink" x="0px" y="0px"
	 viewBox="-24.062 -92.32 83.736 73.248" style="enable-background:new -24.062 -92.32 83.736 73.248;" xml:space="preserve">
<rect x="-24.063" y="-92.321" style="fill:#FFFFFF;" width="83.737" height="73.25"/>
<g>
	<g>
		<g>
			<g>
				<g>
					<path style="fill:#221F20;" d="M8.845-35.747c0.146-0.085,0.317-0.12,0.506-0.12c0.397,0,0.6,0.197,0.6,0.596v0.851H9.818
						v-0.238l-0.01,0.011c-0.007,0.003-0.012,0.014-0.021,0.027c-0.011,0.005-0.021,0.021-0.03,0.034
						c-0.019,0.012-0.027,0.033-0.05,0.043c-0.018,0.015-0.041,0.031-0.058,0.049c-0.023,0.014-0.047,0.031-0.074,0.041
						c-0.03,0.017-0.06,0.033-0.087,0.042c-0.032,0.004-0.066,0.013-0.102,0.026c-0.037,0.008-0.074,0.008-0.117,0.008
						c-0.174,0-0.31-0.051-0.406-0.135c-0.101-0.096-0.152-0.21-0.152-0.344c0-0.135,0.06-0.243,0.171-0.323
						c0.111-0.084,0.256-0.13,0.435-0.13h0.493c0-0.211-0.079-0.351-0.254-0.409c-0.051-0.016-0.11-0.023-0.175-0.023
						c-0.064,0-0.122,0-0.176,0.008c-0.054,0.008-0.099,0.016-0.136,0.027s-0.063,0.02-0.088,0.032
						c-0.021,0.009-0.039,0.021-0.058,0.03c-0.023,0.016-0.027,0.021-0.034,0.021L8.845-35.747z M9.818-35.017
						c0-0.086,0-0.137,0-0.157c-0.032,0-0.07,0-0.108,0c-0.044,0-0.084,0-0.121,0c-0.037,0-0.082,0-0.137,0
						c-0.124,0-0.231,0.004-0.32,0.021c-0.087,0.016-0.157,0.051-0.202,0.103c-0.019,0.026-0.035,0.049-0.047,0.077
						c-0.013,0.035-0.021,0.073-0.024,0.112c-0.005,0.04,0.003,0.08,0.016,0.122c0.013,0.04,0.036,0.075,0.067,0.112
						c0.027,0.028,0.067,0.054,0.126,0.078c0.056,0.021,0.128,0.037,0.207,0.037c0.054,0,0.105-0.006,0.153-0.023
						c0.044-0.009,0.084-0.019,0.116-0.03c0.036-0.017,0.063-0.034,0.095-0.051c0.027-0.018,0.05-0.043,0.064-0.063
						c0.023-0.018,0.035-0.034,0.053-0.061c0.009-0.023,0.019-0.042,0.026-0.064c0.004-0.018,0.017-0.036,0.019-0.053
						c0.007-0.015,0.007-0.028,0.018-0.045C9.818-34.901,9.818-34.939,9.818-35.017z"/>
					<path style="fill:#221F20;" d="M11.378-35.848h0.496v0.122h-0.496v0.681v0.009v0.013c0,0.012,0,0.041,0,0.07
						c-0.003,0.039-0.003,0.061-0.003,0.079c0,0.018,0.003,0.04,0.003,0.071c0,0.027,0.005,0.054,0.008,0.069
						c0.01,0.023,0.017,0.037,0.023,0.062c0.016,0.024,0.024,0.045,0.043,0.057c0.092,0.107,0.234,0.121,0.424,0.051l0.009,0.128
						l-0.027,0.006c-0.007,0.003-0.019,0.003-0.027,0.011c-0.007,0-0.021,0-0.04,0.009c-0.014,0.001-0.032,0.004-0.046,0.004
						c-0.016,0.009-0.038,0.009-0.058,0.009c-0.024,0-0.047,0-0.062,0c-0.019,0-0.042-0.009-0.063-0.013
						c-0.024-0.009-0.043-0.009-0.066-0.02c-0.02-0.014-0.04-0.022-0.067-0.037c-0.023-0.013-0.041-0.033-0.065-0.05
						c-0.037-0.035-0.069-0.098-0.093-0.162c-0.018-0.089-0.028-0.138-0.032-0.176c0-0.037,0-0.098,0-0.168v-0.021v-0.681h-0.205
						v-0.122h0.205v-0.463h0.14V-35.848z"/>
					<path style="fill:#221F20;" d="M12.135-35.747c0.153-0.085,0.318-0.12,0.508-0.12c0.398,0,0.598,0.197,0.598,0.596v0.851h-0.14
						v-0.238l-0.005,0.011c-0.007,0.003-0.008,0.014-0.022,0.027c-0.01,0.005-0.015,0.021-0.032,0.034
						c-0.01,0.012-0.028,0.033-0.043,0.043c-0.019,0.015-0.04,0.031-0.062,0.049c-0.025,0.014-0.045,0.031-0.074,0.041
						c-0.03,0.017-0.062,0.033-0.089,0.042c-0.028,0.004-0.061,0.013-0.099,0.026c-0.036,0.008-0.08,0.008-0.116,0.008
						c-0.172,0-0.311-0.051-0.408-0.135c-0.098-0.096-0.149-0.21-0.149-0.344c0-0.135,0.053-0.243,0.169-0.323
						c0.111-0.084,0.254-0.13,0.435-0.13h0.493c0-0.211-0.084-0.351-0.255-0.409c-0.046-0.016-0.105-0.023-0.171-0.023
						c-0.066,0-0.129,0-0.179,0.008c-0.052,0.008-0.101,0.016-0.136,0.027c-0.034,0.012-0.063,0.02-0.087,0.032
						c-0.023,0.009-0.041,0.021-0.062,0.03c-0.015,0.016-0.021,0.021-0.027,0.021L12.135-35.747z M13.109-35.017
						c0-0.086,0-0.137,0-0.157c-0.035,0-0.07,0-0.11,0c-0.04,0-0.078,0-0.117,0c-0.039,0-0.085,0-0.142,0
						c-0.125,0-0.228,0.004-0.316,0.021c-0.088,0.016-0.159,0.051-0.208,0.103c-0.014,0.026-0.029,0.049-0.046,0.077
						c-0.01,0.035-0.017,0.073-0.022,0.112c-0.002,0.04,0.002,0.08,0.012,0.122c0.016,0.04,0.042,0.075,0.064,0.112
						c0.034,0.028,0.076,0.054,0.132,0.078c0.061,0.021,0.123,0.037,0.212,0.037c0.054,0,0.102-0.006,0.146-0.023
						c0.045-0.009,0.084-0.019,0.118-0.03c0.038-0.017,0.067-0.034,0.093-0.051c0.029-0.018,0.054-0.043,0.072-0.063
						c0.015-0.018,0.031-0.034,0.043-0.061c0.017-0.023,0.022-0.042,0.032-0.064c0.01-0.018,0.014-0.036,0.015-0.053
						c0.007-0.015,0.01-0.028,0.013-0.045C13.107-34.901,13.109-34.939,13.109-35.017z"/>
					<path style="fill:#221F20;" d="M15.028-34.647L15.028-34.647c-0.004,0.039-0.007,0.094-0.018,0.166
						c-0.007,0.061-0.03,0.121-0.068,0.177c-0.038,0.063-0.085,0.118-0.143,0.168c-0.061,0.051-0.128,0.092-0.212,0.124
						c-0.085,0.039-0.171,0.051-0.265,0.051c-0.184,0-0.363-0.051-0.542-0.141v-0.176c0.115,0.121,0.287,0.189,0.533,0.189
						c0.077,0,0.146-0.014,0.206-0.035c0.061-0.02,0.106-0.041,0.143-0.067c0.04-0.021,0.073-0.058,0.103-0.104
						c0.034-0.041,0.051-0.073,0.064-0.104c0.019-0.032,0.028-0.069,0.038-0.113c0.012-0.041,0.012-0.069,0.012-0.087
						c0.006-0.009,0.006-0.025,0.007-0.049v-0.214c-0.026,0.04-0.056,0.075-0.086,0.108c-0.034,0.04-0.076,0.073-0.119,0.107
						c-0.052,0.034-0.103,0.065-0.17,0.082c-0.066,0.021-0.13,0.03-0.199,0.03c-0.081,0-0.151-0.015-0.237-0.04
						c-0.078-0.033-0.152-0.072-0.227-0.125c-0.068-0.054-0.125-0.122-0.156-0.215c-0.047-0.088-0.061-0.189-0.061-0.304
						c0-0.111,0.022-0.205,0.066-0.302c0.047-0.103,0.122-0.184,0.231-0.256c0.1-0.072,0.217-0.11,0.341-0.11
						c0.076,0,0.144,0.014,0.209,0.026c0.061,0.021,0.109,0.035,0.148,0.057c0.043,0.023,0.077,0.053,0.122,0.085
						c0.036,0.032,0.06,0.065,0.077,0.082c0.014,0.018,0.031,0.041,0.049,0.068c0.005,0.008,0.011,0.018,0.012,0.02v-0.3h0.142
						V-34.647z M14.312-34.659c0.148,0,0.279-0.052,0.403-0.153c0.119-0.112,0.178-0.233,0.178-0.386
						c0-0.149-0.059-0.283-0.178-0.397c-0.124-0.109-0.255-0.163-0.403-0.163c-0.153,0-0.285,0.054-0.393,0.159
						c-0.109,0.104-0.165,0.239-0.165,0.39c0,0.148,0.055,0.285,0.165,0.392C14.028-34.71,14.159-34.659,14.312-34.659z"/>
					<path style="fill:#221F20;" d="M15.584-35.061v0.016v0.009c0,0.012-0.003,0.034-0.003,0.083c-0.003,0.053-0.003,0.089,0,0.101
						c0,0.013,0.006,0.04,0.008,0.076c0.006,0.036,0.012,0.065,0.018,0.086c0.018,0.023,0.032,0.043,0.05,0.067
						c0.087,0.104,0.232,0.121,0.423,0.048l0.008,0.121c-0.028,0.009-0.047,0.017-0.054,0.022c-0.007,0.002-0.023,0.003-0.041,0.011
						c-0.013,0-0.035,0-0.046,0c-0.015,0.009-0.035,0.009-0.057,0.009c-0.023,0.001-0.038,0-0.059,0
						c-0.025-0.009-0.046-0.009-0.067-0.009c-0.021-0.008-0.043-0.011-0.065-0.024c-0.021-0.009-0.042-0.019-0.066-0.036
						c-0.02-0.014-0.043-0.031-0.063-0.054c-0.029-0.019-0.053-0.047-0.066-0.081c-0.021-0.043-0.032-0.074-0.042-0.113
						c-0.005-0.04-0.011-0.074-0.014-0.11c-0.006-0.042-0.009-0.077-0.006-0.104c0-0.037,0-0.06-0.003-0.094v-0.024v-1.41h0.146
						V-35.061z"/>
					<path style="fill:#221F20;" d="M16.395-36.288h0.192v0.236h-0.192V-36.288z M16.562-35.581v-0.268h-0.137v1.428h0.137V-35.581z
						"/>
					<path style="fill:#221F20;" d="M17.119-34.42h-0.137v-1.428h0.137v0.245c0.111-0.185,0.277-0.283,0.478-0.283
						c0.2,0,0.348,0.055,0.453,0.168c0.102,0.107,0.154,0.259,0.154,0.455v0.843h-0.138v-0.785c0-0.362-0.161-0.545-0.485-0.547
						c-0.22,0-0.369,0.124-0.462,0.37V-34.42z"/>
					<path style="fill:#221F20;" d="M18.751-35.077c0.008,0.06,0.019,0.123,0.039,0.184c0.033,0.075,0.075,0.14,0.129,0.196
						c0.047,0.063,0.11,0.101,0.184,0.132c0.072,0.03,0.151,0.053,0.232,0.053c0.087,0,0.167-0.023,0.232-0.053
						c0.049-0.017,0.092-0.048,0.131-0.075v0.156c-0.027,0.016-0.051,0.025-0.076,0.03c-0.09,0.043-0.188,0.068-0.294,0.068
						c-0.106,0-0.201-0.025-0.292-0.062c-0.088-0.037-0.168-0.097-0.23-0.161c-0.066-0.071-0.118-0.146-0.153-0.236
						c-0.034-0.09-0.06-0.181-0.06-0.289v-0.003c0-0.1,0.026-0.193,0.06-0.282c0.035-0.087,0.087-0.168,0.153-0.241
						c0.065-0.066,0.147-0.121,0.234-0.165c0.092-0.042,0.189-0.062,0.295-0.062c0.043,0,0.091,0.014,0.146,0.025
						c0.042,0.013,0.095,0.042,0.147,0.08c0.061,0.039,0.111,0.089,0.151,0.145c0.046,0.056,0.081,0.134,0.111,0.231
						c0.032,0.096,0.044,0.207,0.04,0.328H18.751z M19.329-35.752c-0.085,0-0.16,0.019-0.23,0.048
						c-0.078,0.03-0.138,0.079-0.185,0.13c-0.056,0.059-0.092,0.122-0.123,0.192c-0.02,0.064-0.031,0.119-0.039,0.185h1.041
						c0-0.038-0.017-0.103-0.042-0.191c-0.02-0.06-0.048-0.115-0.073-0.159c-0.029-0.047-0.06-0.077-0.082-0.104
						c-0.026-0.021-0.062-0.042-0.092-0.054c-0.043-0.02-0.073-0.027-0.087-0.035c-0.015,0-0.043-0.009-0.07-0.009
						C19.336-35.75,19.332-35.752,19.329-35.752z"/>
					<path style="fill:#221F20;" d="M22.469-34.647h-0.005c0,0.039-0.011,0.094-0.018,0.166c-0.007,0.061-0.024,0.121-0.064,0.177
						c-0.037,0.063-0.083,0.118-0.144,0.168c-0.062,0.051-0.126,0.092-0.215,0.124c-0.081,0.039-0.167,0.051-0.259,0.051
						c-0.187,0-0.362-0.051-0.547-0.141v-0.176c0.112,0.121,0.289,0.189,0.535,0.189c0.077,0,0.142-0.014,0.199-0.035
						c0.069-0.02,0.113-0.041,0.151-0.067c0.035-0.021,0.072-0.058,0.101-0.104c0.034-0.041,0.05-0.073,0.065-0.104
						c0.016-0.032,0.031-0.069,0.039-0.113c0.006-0.041,0.014-0.069,0.017-0.087c0-0.009,0-0.025,0-0.049v-0.214
						c-0.021,0.04-0.056,0.075-0.086,0.108c-0.034,0.04-0.074,0.073-0.119,0.107c-0.054,0.034-0.108,0.065-0.173,0.082
						c-0.064,0.021-0.124,0.03-0.198,0.03s-0.152-0.015-0.233-0.04c-0.078-0.033-0.158-0.072-0.229-0.125
						c-0.07-0.054-0.123-0.122-0.164-0.215c-0.035-0.088-0.059-0.189-0.059-0.304c0-0.111,0.027-0.205,0.073-0.302
						c0.041-0.103,0.124-0.184,0.229-0.256c0.104-0.072,0.216-0.11,0.346-0.11c0.069,0,0.134,0.014,0.201,0.026
						c0.065,0.021,0.113,0.035,0.152,0.057c0.047,0.023,0.08,0.053,0.113,0.085c0.041,0.032,0.066,0.065,0.081,0.082
						c0.013,0.018,0.031,0.041,0.054,0.068c0.008,0.008,0.011,0.018,0.011,0.02v-0.3h0.145V-34.647z M21.747-34.659
						c0.149,0,0.28-0.052,0.408-0.153c0.118-0.112,0.175-0.233,0.175-0.386c0-0.149-0.057-0.283-0.175-0.397
						c-0.128-0.109-0.26-0.163-0.408-0.163c-0.15,0-0.285,0.054-0.392,0.159c-0.106,0.104-0.156,0.239-0.156,0.39
						c0,0.148,0.05,0.285,0.156,0.392C21.461-34.71,21.596-34.659,21.747-34.659z"/>
					<path style="fill:#221F20;" d="M23.59-34.385c-0.106,0-0.205-0.025-0.295-0.062c-0.08-0.037-0.164-0.097-0.229-0.161
						c-0.065-0.071-0.118-0.146-0.152-0.236c-0.036-0.09-0.057-0.181-0.057-0.289v-0.003c0-0.1,0.021-0.193,0.057-0.282
						c0.034-0.087,0.087-0.168,0.152-0.241c0.065-0.066,0.149-0.121,0.231-0.165c0.095-0.042,0.193-0.062,0.302-0.062
						c0.104,0,0.196,0.02,0.289,0.062c0.093,0.044,0.165,0.096,0.227,0.164c0.07,0.066,0.122,0.146,0.16,0.237
						c0.03,0.081,0.047,0.184,0.047,0.279v0.008c0,0.1-0.017,0.197-0.047,0.284c-0.038,0.092-0.09,0.172-0.16,0.244
						c-0.062,0.064-0.141,0.124-0.227,0.161C23.795-34.411,23.693-34.385,23.59-34.385z M23.599-34.512
						c0.077,0,0.155-0.023,0.237-0.053c0.062-0.034,0.127-0.075,0.178-0.132c0.048-0.057,0.097-0.121,0.118-0.196
						c0.032-0.072,0.048-0.152,0.048-0.24v-0.003c0-0.082-0.016-0.164-0.048-0.246c-0.028-0.07-0.073-0.138-0.125-0.198
						c-0.048-0.048-0.11-0.094-0.188-0.126c-0.072-0.027-0.15-0.046-0.23-0.046c-0.081,0-0.162,0.019-0.237,0.048
						c-0.071,0.03-0.134,0.079-0.185,0.13c-0.043,0.059-0.089,0.122-0.125,0.192c-0.023,0.073-0.037,0.155-0.037,0.238v0.008
						c0,0.091,0.014,0.169,0.046,0.243c0.03,0.075,0.073,0.14,0.124,0.196c0.048,0.063,0.119,0.101,0.185,0.132
						C23.436-34.535,23.513-34.512,23.599-34.512z"/>
					<path style="fill:#221F20;" d="M24.86-35.077c0.01,0.06,0.023,0.123,0.049,0.184c0.024,0.075,0.07,0.14,0.125,0.196
						c0.045,0.063,0.114,0.101,0.188,0.132c0.071,0.03,0.15,0.053,0.221,0.053c0.093,0,0.169-0.023,0.237-0.053
						c0.056-0.017,0.097-0.048,0.138-0.075v0.156c-0.033,0.016-0.059,0.025-0.072,0.03c-0.093,0.043-0.194,0.068-0.303,0.068
						c-0.104,0-0.202-0.025-0.293-0.062c-0.086-0.037-0.164-0.097-0.226-0.161c-0.066-0.071-0.118-0.146-0.156-0.236
						c-0.035-0.09-0.058-0.181-0.058-0.289v-0.003c0-0.1,0.022-0.193,0.058-0.282c0.038-0.087,0.09-0.168,0.156-0.241
						c0.062-0.066,0.146-0.121,0.234-0.165c0.083-0.042,0.182-0.062,0.284-0.062c0.057,0,0.103,0.014,0.148,0.025
						c0.046,0.013,0.101,0.042,0.159,0.08c0.051,0.039,0.104,0.089,0.148,0.145c0.047,0.056,0.085,0.134,0.11,0.231
						c0.03,0.096,0.046,0.207,0.046,0.328H24.86z M25.442-35.752c-0.079,0-0.16,0.019-0.231,0.048c-0.07,0.03-0.132,0.079-0.19,0.13
						c-0.042,0.059-0.088,0.122-0.112,0.192c-0.025,0.064-0.039,0.119-0.049,0.185h1.049c0-0.038-0.021-0.103-0.038-0.191
						c-0.023-0.06-0.052-0.115-0.074-0.159c-0.038-0.047-0.062-0.077-0.089-0.104c-0.028-0.021-0.056-0.042-0.097-0.054
						c-0.035-0.02-0.061-0.027-0.083-0.035c-0.019,0-0.037-0.009-0.068-0.009C25.45-35.75,25.442-35.752,25.442-35.752z"/>
					<path style="fill:#221F20;" d="M27.238-35.603c-0.009-0.008-0.029-0.022-0.054-0.033c-0.021-0.017-0.063-0.038-0.133-0.059
						c-0.068-0.031-0.131-0.039-0.189-0.056c-0.052-0.008-0.126,0-0.191,0.021c-0.071,0.022-0.127,0.055-0.171,0.118
						c-0.037,0.07-0.044,0.132-0.022,0.192c0.039,0.055,0.083,0.089,0.15,0.109c0.067,0.026,0.141,0.053,0.233,0.082
						c0.079,0.034,0.162,0.057,0.244,0.091c0.064,0.029,0.132,0.073,0.178,0.134c0.047,0.064,0.064,0.132,0.059,0.221
						c-0.012,0.11-0.049,0.207-0.127,0.27c-0.066,0.059-0.144,0.1-0.238,0.113c-0.097,0.013-0.194,0-0.29-0.012
						c-0.096-0.018-0.182-0.043-0.259-0.07c-0.074-0.031-0.128-0.068-0.154-0.101l0.067-0.118c0.014,0.01,0.043,0.027,0.078,0.046
						c0.033,0.021,0.09,0.046,0.181,0.08c0.097,0.039,0.17,0.056,0.249,0.056c0.124,0,0.207-0.031,0.272-0.081
						c0.048-0.055,0.08-0.13,0.08-0.219c0-0.053-0.032-0.099-0.076-0.144c-0.045-0.036-0.109-0.063-0.173-0.09
						c-0.067-0.023-0.143-0.048-0.252-0.07c-0.135-0.031-0.237-0.088-0.306-0.175c-0.068-0.086-0.093-0.184-0.054-0.289
						c0.03-0.103,0.099-0.18,0.21-0.237c0.099-0.05,0.211-0.072,0.324-0.05c0.065,0.006,0.133,0.024,0.206,0.05
						c0.067,0.028,0.127,0.058,0.168,0.076l0.058,0.033L27.238-35.603z"/>
					<path style="fill:#221F20;" d="M28.609-35.595c0.018-0.028,0.04-0.058,0.072-0.087c0.017-0.024,0.056-0.059,0.095-0.091
						c0.042-0.034,0.097-0.059,0.157-0.08c0.058-0.019,0.138-0.033,0.204-0.033c0.098,0,0.183,0.02,0.264,0.055
						c0.071,0.044,0.134,0.09,0.172,0.154c0.043,0.059,0.071,0.127,0.096,0.196c0.02,0.068,0.027,0.139,0.027,0.218v0.843h-0.138
						v-0.815c0-0.009,0-0.021,0-0.035c0-0.008-0.005-0.038-0.005-0.071c-0.012-0.04-0.012-0.07-0.019-0.104
						c-0.007-0.033-0.022-0.067-0.043-0.114c-0.024-0.035-0.052-0.065-0.081-0.093c-0.028-0.033-0.076-0.054-0.13-0.073
						c-0.054-0.024-0.11-0.032-0.179-0.032c-0.217,0-0.375,0.114-0.493,0.346v0.992h-0.141v-2.051h0.141V-35.595z"/>
					<path style="fill:#221F20;" d="M30.246-35.077c0.009,0.06,0.024,0.123,0.043,0.184c0.032,0.075,0.072,0.14,0.124,0.196
						c0.056,0.063,0.113,0.101,0.184,0.132c0.076,0.03,0.15,0.053,0.24,0.053c0.078,0,0.158-0.023,0.227-0.053
						c0.048-0.017,0.09-0.048,0.134-0.075v0.156c-0.024,0.016-0.058,0.025-0.076,0.03c-0.098,0.043-0.19,0.068-0.296,0.068
						c-0.106,0-0.2-0.025-0.293-0.062c-0.086-0.037-0.163-0.097-0.236-0.161c-0.067-0.071-0.115-0.146-0.146-0.236
						c-0.036-0.09-0.058-0.181-0.058-0.289v-0.003c0-0.1,0.021-0.193,0.058-0.282c0.03-0.087,0.078-0.168,0.146-0.241
						c0.073-0.066,0.15-0.121,0.243-0.165c0.086-0.042,0.185-0.062,0.297-0.062c0.039,0,0.089,0.014,0.136,0.025
						c0.051,0.013,0.095,0.042,0.153,0.08c0.064,0.039,0.118,0.089,0.157,0.145c0.042,0.056,0.077,0.134,0.111,0.231
						c0.028,0.096,0.037,0.207,0.037,0.328H30.246z M30.826-35.752c-0.085,0-0.159,0.019-0.237,0.048
						c-0.067,0.03-0.126,0.079-0.181,0.13c-0.055,0.059-0.094,0.122-0.119,0.192c-0.019,0.064-0.034,0.119-0.043,0.185h1.042
						c-0.005-0.038-0.016-0.103-0.043-0.191c-0.015-0.06-0.042-0.115-0.069-0.159c-0.035-0.047-0.061-0.077-0.084-0.104
						c-0.031-0.021-0.063-0.042-0.097-0.054c-0.035-0.02-0.063-0.027-0.08-0.035c-0.02,0-0.042-0.009-0.064-0.009
						C30.836-35.75,30.829-35.752,30.826-35.752z"/>
					<path style="fill:#221F20;" d="M32.564-35.718c-0.024,0-0.062,0-0.094,0.005c-0.033,0-0.081,0.013-0.127,0.039
						c-0.06,0.021-0.11,0.056-0.154,0.094c-0.045,0.04-0.087,0.1-0.138,0.176c-0.04,0.087-0.072,0.178-0.093,0.288v0.696h-0.135
						v-1.428h0.135v0.268v0.123c0.085-0.161,0.186-0.271,0.288-0.323c0.099-0.059,0.209-0.086,0.317-0.086V-35.718z"/>
					<path style="fill:#221F20;" d="M32.601-35.077c0.007,0.06,0.021,0.123,0.046,0.184c0.026,0.075,0.065,0.14,0.12,0.196
						c0.059,0.063,0.113,0.101,0.189,0.132c0.069,0.03,0.146,0.053,0.228,0.053c0.086,0,0.165-0.023,0.244-0.053
						c0.04-0.017,0.084-0.048,0.121-0.075v0.156c-0.027,0.016-0.054,0.025-0.073,0.03c-0.092,0.043-0.189,0.068-0.298,0.068
						c-0.102,0-0.202-0.025-0.292-0.062c-0.086-0.037-0.17-0.097-0.232-0.161c-0.069-0.071-0.112-0.146-0.153-0.236
						c-0.033-0.09-0.051-0.181-0.051-0.289v-0.003c0-0.1,0.018-0.193,0.051-0.282c0.041-0.087,0.084-0.168,0.153-0.241
						c0.069-0.066,0.153-0.121,0.236-0.165c0.093-0.042,0.188-0.062,0.293-0.062c0.048,0,0.092,0.014,0.151,0.025
						c0.035,0.013,0.093,0.042,0.153,0.08c0.055,0.039,0.098,0.089,0.153,0.145c0.04,0.056,0.075,0.134,0.099,0.231
						c0.031,0.096,0.043,0.207,0.043,0.328H32.601z M33.178-35.752c-0.089,0-0.153,0.019-0.233,0.048
						c-0.071,0.03-0.131,0.079-0.185,0.13c-0.048,0.059-0.087,0.122-0.113,0.192c-0.025,0.064-0.039,0.119-0.046,0.185h1.041
						c0-0.038-0.014-0.103-0.04-0.191c-0.021-0.06-0.045-0.115-0.08-0.159c-0.026-0.047-0.048-0.077-0.075-0.104
						c-0.032-0.021-0.06-0.042-0.098-0.054c-0.035-0.02-0.064-0.027-0.082-0.035c-0.018,0-0.043-0.009-0.063-0.009
						C33.197-35.75,33.184-35.752,33.178-35.752z"/>
				</g>
			</g>
			<polygon style="fill:#221F20;" points="8.158,-34.852 -3.189,-34.819 -3.189,-34.967 8.158,-34.998 			"/>
		</g>
		<g>
			<path style="fill:#221F20;" d="M0.475-44.473h1.167l2.607,7.171H2.685l-0.48-1.479H-0.59l-0.458,1.479h-1.564l2.378-6.693
				C-0.109-44.315,0.126-44.473,0.475-44.473z M0.807-43.035l-1,3.045H1.81L0.807-43.035z"/>
			<path style="fill:#221F20;" d="M6.001-43.787v1.673c0.153-0.271,0.376-0.483,0.668-0.65c0.25-0.141,0.556-0.207,0.916-0.207
				c0.654,0,1.19,0.269,1.607,0.811c0.418,0.542,0.625,1.248,0.625,2.108c0,0.859-0.207,1.562-0.625,2.104
				c-0.211,0.264-0.49,0.453-0.845,0.573c-0.354,0.119-0.706,0.18-1.052,0.18c-0.666,0-1.286-0.179-1.857-0.521
				c-0.571-0.351-0.857-1.016-0.857-2.003v-4.778h0.711c0.193,0,0.363,0.068,0.501,0.208C5.932-44.15,6.001-43.983,6.001-43.787z
				 M8.38-40.115c0-0.501-0.104-0.889-0.313-1.172c-0.208-0.287-0.494-0.437-0.856-0.437c-0.387,0-0.686,0.143-0.897,0.418
				c-0.207,0.29-0.312,0.689-0.312,1.19c0,0.582,0.098,1.009,0.293,1.271c0.208,0.294,0.5,0.438,0.874,0.438
				c0.392,0,0.69-0.144,0.898-0.438C8.276-39.139,8.38-39.562,8.38-40.115z"/>
			<path style="fill:#221F20;" d="M9.945-39.139h1.417c0.014,0.282,0.118,0.492,0.314,0.631c0.207,0.137,0.485,0.206,0.833,0.206
				c0.251,0,0.468-0.048,0.647-0.146c0.167-0.099,0.249-0.229,0.249-0.396c0-0.25-0.292-0.438-0.877-0.562
				c-0.248-0.045-0.437-0.085-0.561-0.127c-0.736-0.182-1.231-0.396-1.48-0.646c-0.279-0.253-0.419-0.584-0.419-1.003
				c0-0.526,0.203-0.966,0.604-1.31c0.418-0.32,0.961-0.479,1.627-0.479c0.725,0,1.302,0.159,1.732,0.479
				c0.405,0.345,0.618,0.801,0.65,1.351h-0.9c-0.264,0-0.464-0.114-0.604-0.349c-0.055-0.062-0.112-0.116-0.167-0.168
				c-0.168-0.126-0.396-0.192-0.687-0.192c-0.279,0-0.488,0.045-0.627,0.127c-0.126,0.083-0.187,0.21-0.187,0.377
				c0,0.221,0.358,0.41,1.083,0.563c0.086,0.027,0.158,0.051,0.221,0.063c0.063,0.017,0.121,0.018,0.177,0.018
				c0.707,0.183,1.201,0.396,1.48,0.627c0.264,0.249,0.397,0.584,0.397,1.004c0,0.611-0.224,1.085-0.669,1.415
				c-0.417,0.306-1.041,0.462-1.874,0.462c-0.795,0-1.387-0.162-1.774-0.481c-0.403-0.322-0.604-0.784-0.604-1.396V-39.139z"/>
			<path style="fill:#221F20;" d="M17.555-37.302c-0.456,0.031-0.952,0.021-1.488-0.02c-0.536-0.042-0.804-0.381-0.804-1.021v-6.13
				h0.753c0.18,0,0.34,0.068,0.479,0.205c0.14,0.142,0.209,0.308,0.209,0.499v0.941h0.852v0.29c0,0.21-0.066,0.38-0.206,0.514
				c-0.14,0.134-0.305,0.196-0.5,0.196h-0.147v3.088c0,0.235,0.138,0.357,0.418,0.357h0.434V-37.302z"/>
			<path style="fill:#221F20;" d="M17.683-37.302v-2.688c0-0.543,0.081-0.998,0.237-1.364c0.164-0.37,0.382-0.666,0.661-0.889
				c0.264-0.21,0.574-0.363,0.929-0.459c0.353-0.097,0.721-0.146,1.092-0.146c0.031,0,0.065,0,0.107,0c0.04,0,0.076,0,0.1,0v1.479
				h-0.475c-0.406,0-0.703,0.097-0.897,0.291c-0.193,0.196-0.294,0.5-0.294,0.921v2.854H17.683z"/>
			<path style="fill:#221F20;" d="M24.502-37.531c-0.291,0.156-0.602,0.246-0.929,0.28c-0.326,0.039-0.613,0.057-0.862,0.057
				c-0.502,0-0.941-0.138-1.316-0.41c-0.377-0.271-0.561-0.722-0.561-1.344c0-0.585,0.165-1.001,0.509-1.253
				c0.34-0.248,0.776-0.415,1.301-0.501c0.07,0,0.158-0.006,0.253-0.031c0.099-0.019,0.209-0.038,0.333-0.051
				c0.612-0.081,0.919-0.268,0.919-0.543c0-0.21-0.108-0.343-0.323-0.406c-0.217-0.063-0.414-0.095-0.596-0.095
				c-0.192,0-0.367,0.029-0.518,0.085c-0.156,0.056-0.266,0.162-0.335,0.314h-1.398c0.055-0.434,0.252-0.785,0.584-1.063
				c0.371-0.32,0.911-0.479,1.606-0.479c0.778,0,1.362,0.131,1.753,0.393c0.403,0.277,0.604,0.67,0.604,1.171v1.9
				c0,0.553-0.099,0.99-0.302,1.299C25.019-37.897,24.783-37.671,24.502-37.531z M24.168-40.097c-0.19,0.098-0.466,0.19-0.814,0.271
				l-0.477,0.107c-0.251,0.066-0.432,0.156-0.54,0.268c-0.099,0.159-0.151,0.31-0.151,0.461c0,0.209,0.065,0.376,0.19,0.5
				c0.126,0.111,0.306,0.164,0.543,0.164c0.388,0,0.691-0.107,0.918-0.33c0.222-0.221,0.331-0.529,0.331-0.917V-40.097z"/>
			<path style="fill:#221F20;" d="M29.593-39.008h1.043c-0.155,0.583-0.442,1.027-0.876,1.333c-0.428,0.319-0.973,0.481-1.624,0.481
				c-0.797,0-1.418-0.261-1.862-0.774c-0.444-0.5-0.668-1.217-0.668-2.146c0-0.889,0.221-1.586,0.649-2.088
				c0.443-0.514,1.064-0.768,1.854-0.768c0.834,0,1.483,0.247,1.941,0.749c0.252,0.307,0.43,0.66,0.537,1.065h-1.452
				c-0.073-0.14-0.144-0.245-0.212-0.313c-0.179-0.195-0.437-0.293-0.77-0.293c-0.306,0-0.556,0.098-0.751,0.293
				c-0.255,0.277-0.376,0.738-0.376,1.374c0,0.642,0.121,1.092,0.376,1.357c0.18,0.223,0.453,0.333,0.811,0.333
				c0.239,0,0.44-0.047,0.608-0.144c0.042-0.014,0.078-0.04,0.115-0.073c0.031-0.038,0.072-0.072,0.117-0.116
				c0.023-0.041,0.081-0.096,0.162-0.168C29.298-38.976,29.425-39.008,29.593-39.008z"/>
			<path style="fill:#221F20;" d="M33.331-37.302c-0.462,0.031-0.961,0.021-1.494-0.02c-0.537-0.042-0.806-0.381-0.806-1.021v-6.13
				h0.754c0.181,0,0.342,0.068,0.476,0.205c0.145,0.142,0.212,0.308,0.212,0.499v0.941h0.858v0.29c0,0.21-0.074,0.38-0.212,0.514
				c-0.14,0.134-0.305,0.196-0.501,0.196h-0.146v3.088c0,0.235,0.14,0.357,0.417,0.357h0.441V-37.302z"/>
		</g>
	</g>
	<g>
		<g>
			
				<radialGradient id="SVGID_1_" cx="397.7977" cy="472.8398" r="9.3866" fx="392.3162" fy="472.6836" gradientTransform="matrix(-1.1152 -0.0036 0.002 0.3855 449.7654 -227.7422)" gradientUnits="userSpaceOnUse">
				<stop  offset="0" style="stop-color:#272727"/>
				<stop  offset="0.0453" style="stop-color:#494949"/>
				<stop  offset="0.1107" style="stop-color:#737373"/>
				<stop  offset="0.1817" style="stop-color:#999999"/>
				<stop  offset="0.2572" style="stop-color:#B9B9B9"/>
				<stop  offset="0.3388" style="stop-color:#D3D3D3"/>
				<stop  offset="0.4287" style="stop-color:#E6E6E6"/>
				<stop  offset="0.5314" style="stop-color:#F4F4F4"/>
				<stop  offset="0.6579" style="stop-color:#FDFDFD"/>
				<stop  offset="0.8787" style="stop-color:#FFFFFF"/>
			</radialGradient>
			<path style="opacity:0.87;fill:url(#SVGID_1_);" d="M-4.096-47.201c0.006,2.001,5.052,3.668,11.242,3.693
				c6.214,0.033,11.222-1.589,11.212-3.59c-0.008-2.038-5.036-3.705-11.246-3.728C0.913-50.854-4.107-49.232-4.096-47.201z"/>
			
				<radialGradient id="SVGID_00000055675387035415419430000000279818148492140702_" cx="398.2271" cy="472.9286" r="10.4986" fx="392.0961" fy="472.7539" gradientTransform="matrix(1.1152 -0.0036 -0.002 0.3855 -430.8719 -227.7422)" gradientUnits="userSpaceOnUse">
				<stop  offset="0" style="stop-color:#272727"/>
				<stop  offset="0.0453" style="stop-color:#494949"/>
				<stop  offset="0.1107" style="stop-color:#737373"/>
				<stop  offset="0.1817" style="stop-color:#999999"/>
				<stop  offset="0.2572" style="stop-color:#B9B9B9"/>
				<stop  offset="0.3388" style="stop-color:#D3D3D3"/>
				<stop  offset="0.4287" style="stop-color:#E6E6E6"/>
				<stop  offset="0.5314" style="stop-color:#F4F4F4"/>
				<stop  offset="0.6579" style="stop-color:#FDFDFD"/>
				<stop  offset="0.8787" style="stop-color:#FFFFFF"/>
			</radialGradient>
			<path style="opacity:0.87;fill:url(#SVGID_00000055675387035415419430000000279818148492140702_);" d="M24.793-47.205
				c-0.006,2.24-5.65,4.101-12.574,4.131c-6.95,0.038-12.552-1.777-12.541-4.015c0.009-2.279,5.633-4.144,12.578-4.17
				C19.192-51.291,24.806-49.476,24.793-47.205z"/>
		</g>
		<g>
			
				<radialGradient id="SVGID_00000129204875140518381830000008814685545129327239_" cx="386.8344" cy="472.7374" r="9.3866" fx="381.3529" fy="472.5812" gradientTransform="matrix(-1.1152 -0.0036 0.002 0.3855 449.7654 -227.7422)" gradientUnits="userSpaceOnUse">
				<stop  offset="0" style="stop-color:#272727"/>
				<stop  offset="0.0453" style="stop-color:#494949"/>
				<stop  offset="0.1107" style="stop-color:#737373"/>
				<stop  offset="0.1817" style="stop-color:#999999"/>
				<stop  offset="0.2572" style="stop-color:#B9B9B9"/>
				<stop  offset="0.3388" style="stop-color:#D3D3D3"/>
				<stop  offset="0.4287" style="stop-color:#E6E6E6"/>
				<stop  offset="0.5314" style="stop-color:#F4F4F4"/>
				<stop  offset="0.6579" style="stop-color:#FDFDFD"/>
				<stop  offset="0.8787" style="stop-color:#FFFFFF"/>
			</radialGradient>
			<path style="opacity:0.87;fill:url(#SVGID_00000129204875140518381830000008814685545129327239_);" d="M8.13-47.201
				c0.006,2.001,5.051,3.668,11.241,3.693c6.215,0.033,11.223-1.589,11.212-3.59c-0.009-2.038-5.037-3.705-11.246-3.728
				C13.138-50.854,8.119-49.232,8.13-47.201z"/>
			
				<radialGradient id="SVGID_00000146486914186215018200000015486481707457611432_" cx="409.1902" cy="473.031" r="10.4985" fx="403.0593" fy="472.8562" gradientTransform="matrix(1.1152 -0.0036 -0.002 0.3855 -430.8719 -227.7422)" gradientUnits="userSpaceOnUse">
				<stop  offset="0" style="stop-color:#272727"/>
				<stop  offset="0.0453" style="stop-color:#494949"/>
				<stop  offset="0.1107" style="stop-color:#737373"/>
				<stop  offset="0.1817" style="stop-color:#999999"/>
				<stop  offset="0.2572" style="stop-color:#B9B9B9"/>
				<stop  offset="0.3388" style="stop-color:#D3D3D3"/>
				<stop  offset="0.4287" style="stop-color:#E6E6E6"/>
				<stop  offset="0.5314" style="stop-color:#F4F4F4"/>
				<stop  offset="0.6579" style="stop-color:#FDFDFD"/>
				<stop  offset="0.8787" style="stop-color:#FFFFFF"/>
			</radialGradient>
			<path style="opacity:0.87;fill:url(#SVGID_00000146486914186215018200000015486481707457611432_);" d="M37.019-47.205
				c-0.006,2.24-5.65,4.101-12.574,4.131c-6.95,0.038-12.552-1.777-12.54-4.015c0.009-2.279,5.633-4.144,12.578-4.17
				C31.417-51.291,37.032-49.476,37.019-47.205z"/>
		</g>
		<g>
			
				<linearGradient id="SVGID_00000147908417370912522760000007481927627264296072_" gradientUnits="userSpaceOnUse" x1="-0.1642" y1="-58.5669" x2="27.9012" y2="-58.5669">
				<stop  offset="0.3439" style="stop-color:#272727"/>
				<stop  offset="0.3924" style="stop-color:#2E2E2E"/>
				<stop  offset="0.4641" style="stop-color:#424242"/>
				<stop  offset="0.5498" style="stop-color:#636363"/>
				<stop  offset="0.5506" style="stop-color:#636363"/>
				<stop  offset="0.5545" style="stop-color:#616161"/>
				<stop  offset="0.5559" style="stop-color:#5A5A5A"/>
				<stop  offset="0.5569" style="stop-color:#4F4F4F"/>
				<stop  offset="0.5577" style="stop-color:#3E3E3E"/>
				<stop  offset="0.5584" style="stop-color:#282828"/>
				<stop  offset="0.5584" style="stop-color:#272727"/>
			</linearGradient>
			<path style="fill:url(#SVGID_00000147908417370912522760000007481927627264296072_);" d="M29.331-62.282
				c-3.438-2.243-5.628-4.26-8.193-7.45c-1.419,2.242-3.212,4.236-5.528,6.03c-3.138-2.392-4.832-4.136-6.151-6.553
				c-0.124,0.174-0.274,0.374-0.398,0.573c-0.274,0.398-0.673,0.848-1.121,1.295c0.423,0.647,0.847,1.246,1.269,1.819
				c1.295,1.72,2.714,3.115,4.159,4.286c-1.37,1.147-2.69,2.417-3.91,3.987c-1.246-1.57-2.565-2.866-3.934-3.962
				c1.269-1.046,2.465-2.217,3.635-3.638C9.06-66.02,8.96-66.144,8.86-66.269c-0.422-0.548-0.822-1.122-1.22-1.744
				c-1.918,2.491-4.084,4.235-6.375,5.73c2.316,1.545,4.507,3.29,6.424,5.831c1.619,2.118,3.063,4.81,4.259,8.423
				c0.747,1.594,2.64,1.47,2.64,0c-1.021-3.289-2.265-5.932-3.636-8.1c0.099-0.124,0.174-0.224,0.249-0.324
				c2.988-3.937,7.197-5.706,10.235-9.418c1.171,1.395,2.366,2.566,3.637,3.587c-1.271,1.047-2.466,2.218-3.637,3.614
				c-1.045-1.296-2.166-2.393-3.336-3.364c-0.698,0.523-1.396,1.045-2.068,1.544c1.37,1.097,2.665,2.368,3.885,3.912
				c-1.494,2.268-2.814,5.033-3.91,8.548c0,1.47,1.892,1.594,2.639,0c0.823-2.493,1.769-4.536,2.79-6.28
				c1.046,1.744,1.992,3.787,2.813,6.28c0.748,1.594,2.641,1.47,2.641,0c-1.096-3.515-2.416-6.28-3.91-8.548
				C24.898-59.042,27.04-60.762,29.331-62.282L29.331-62.282z M7.615-55.629c-1.245,2.093-2.365,4.56-3.312,7.601
				c0,1.47,1.892,1.594,2.641,0c0.646-1.969,1.394-3.688,2.191-5.158C8.636-54.083,8.138-54.881,7.615-55.629L7.615-55.629z"/>
			<path style="fill-rule:evenodd;clip-rule:evenodd;fill:#F5811E;" d="M9.358-64.898c-0.397,0.523-0.821,1.046-1.32,1.57h0.025
				c-0.398,0.374-0.797,0.722-1.246,1.096c1.021,0.822,1.843,1.67,2.591,2.591c0.722-0.921,1.568-1.769,2.565-2.591
				C10.853-63.129,10.255-63.977,9.358-64.898L9.358-64.898z"/>
			<path style="fill-rule:evenodd;clip-rule:evenodd;fill:#4DA391;" d="M21.487-64.898c-0.822,1.071-1.494,1.818-2.516,2.666
				c0.995,0.822,1.818,1.67,2.565,2.591c0.722-0.921,1.569-1.769,2.565-2.591C23.005-63.129,22.383-63.977,21.487-64.898
				L21.487-64.898z"/>
		</g>
	</g>
</g>
</svg>
